<?xml version="1.0" standalone="no"?>
<!DOCTYPE svg PUBLIC "-//W3C//DTD SVG 1.1//EN" "http://www.w3.org/Graphics/SVG/1.1/DTD/svg11.dtd" >
<svg xmlns="http://www.w3.org/2000/svg">
<metadata>
Created by FontPrep 20130207 at Thu May  7 16:35:11 2015
 By Qunabu
Cardenio Modern (c) Nils Cordes. 2014.
</metadata>
<defs>
<font id="1d99477424e13256b571c8eacdec7daf" horiz-adv-x='1024' >
  <font-face 
    font-family="CardenioModern-Bold"
    font-weight="700"
    font-stretch="normal"
    units-per-em="2048"
    panose-1="3 0 7 0 0 0 0 0 0 0"
    ascent="1638"
    descent="-410"
    x-height="1319"
    cap-height="1564"
    bbox="-45 -609 1631 2200"
    underline-thickness="150"
    underline-position="-142"
    unicode-range="U+0020-2265"
  />
<missing-glyph 
d="M156 1369v-1313h712v1313h-712zM114 1425h796q14 -2 14 -14v-1397q0 -14 -14 -14h-796q-14 0 -14 14v1397q2 14 14 14zM520 270v-83q0 -27 -43 -30h-12q-46 0 -46 20q0 1 1 6v76q0 31 21 31h53q26 -1 26 -20zM465 1258h47q205 0 205 -249q0 -116 -111 -246
q-82 -102 -82 -322q0 -7 -47 -8h-12q-39 0 -39 19v3q3 270 132 402q59 79 59 152q0 156 -86 156h-74q-41 -8 -41 -85q5 -70 6 -139v-7q0 -5 -46 -6h-5q-45 0 -47 25l-3 137q18 163 99 163q0 5 45 5z" />
    <glyph glyph-name=".notdef" 
d="M156 1369v-1313h712v1313h-712zM114 1425h796q14 -2 14 -14v-1397q0 -14 -14 -14h-796q-14 0 -14 14v1397q2 14 14 14zM520 270v-83q0 -27 -43 -30h-12q-46 0 -46 20q0 1 1 6v76q0 31 21 31h53q26 -1 26 -20zM465 1258h47q205 0 205 -249q0 -116 -111 -246
q-82 -102 -82 -322q0 -7 -47 -8h-12q-39 0 -39 19v3q3 270 132 402q59 79 59 152q0 156 -86 156h-74q-41 -8 -41 -85q5 -70 6 -139v-7q0 -5 -46 -6h-5q-45 0 -47 25l-3 137q18 163 99 163q0 5 45 5z" />
    <glyph glyph-name=".null" horiz-adv-x="0" 
 />
    <glyph glyph-name="nonmarkingreturn" horiz-adv-x="508" 
 />
    <glyph glyph-name="nonbreakingspace" unicode=" " horiz-adv-x="508" 
 />
    <glyph glyph-name="nonbreakingspace" unicode="&#xa0;" horiz-adv-x="508" 
 />
    <glyph glyph-name="exclam" unicode="!" horiz-adv-x="457" 
d="M187 127q128 0 128 -80q4 0 4 -48q0 -96 -92 -96h-8q-92 0 -92 56v88q0 80 60 80zM267 323h-84q-43 0 -60 44q4 168 4 236q0 937 22 945t58 11q108 -4 108 -32q-4 -815 -4 -1160q-9 -44 -44 -44z" />
    <glyph glyph-name="quotedbl" unicode="&#x22;" horiz-adv-x="657" 
d="M517 1526q0 -27 -4 -352q0 -60 -52 -60h-40q-47 0 -60 24q4 107 4 168v252q0 56 108 56q44 -11 44 -88zM265 1206q0 -76 -40 -76h-80q-30 0 -36 40v36q12 290 12 396q20 16 28 16q94 -4 104 -4q16 -18 16 -20q-4 -312 -4 -388z" />
    <glyph glyph-name="numbersign" unicode="#" horiz-adv-x="1082" 
d="M553 726q0 160 8 252h-100q-20 -218 -20 -364l4 -56q10 0 108 4v164zM929 1094q16 0 16 -56v-20q0 -52 -44 -52q-58 0 -168 8q-4 -294 -4 -412h92q136 0 136 -52v-60q0 -44 -72 -48h-152q0 -40 12 -248q0 -26 -72 -32h-20q-84 0 -84 80l-12 200h-112l16 -240
q-25 -24 -56 -24h-32q-96 0 -96 112q0 36 -8 152q-99 -4 -152 -4q-28 0 -48 36v12q0 104 64 104l128 4v76q0 111 12 328q4 8 4 12q-46 0 -132 -8q-48 11 -48 44v52q0 76 132 76q21 0 68 4q16 212 44 212q26 16 84 16h16q56 -5 56 -48q0 -24 -20 -176h96q31 304 72 304l40 8
q108 0 108 -48q-32 -121 -32 -272q168 -13 168 -40z" />
    <glyph glyph-name="dollar" unicode="$" horiz-adv-x="950" 
d="M690 418v44q0 220 -56 236q-29 16 -64 16h-28l36 -568h4q108 54 108 272zM330 894h24q-12 337 -12 520v12h-24q-65 0 -88 -108q-8 -118 -8 -208q10 -216 108 -216zM444 1722q74 0 74 -40v-100q151 0 240 -116q32 -56 32 -180v-144q0 -64 -96 -64h-8q-64 4 -64 28
q-4 131 -4 204v24q0 92 -76 92h-36q12 -409 24 -536h32q243 0 284 -232q8 -122 8 -156v-48q0 -322 -148 -412q-82 -51 -120 -56v-84q0 -56 -112 -56q-68 4 -68 44v68q0 6 -96 20q-103 33 -144 100q-72 144 -72 252v64q0 208 104 208h48q36 -5 36 -36q-20 -141 -20 -204
q0 -194 100 -232l28 -4h12q-4 148 -36 596h-8q-199 0 -260 180q-24 106 -24 256q0 284 68 360q68 64 200 64v4q4 74 4 108q24 28 98 28z" />
    <glyph glyph-name="percent" unicode="%" horiz-adv-x="1320" 
d="M930 507v-88q6 -230 40 -248q68 49 68 292v108q-8 128 -40 128q-68 0 -68 -192zM990 851h28q139 0 188 -196q4 -52 4 -84v-128q0 -436 -256 -436q-158 0 -200 316q-4 48 -4 108v24q0 276 100 344q53 52 140 52zM266 1187q0 -104 44 -104h28q52 0 52 352v60q0 28 -28 28
q-72 0 -96 -248v-88zM1062 1607q0 -15 -52 -116q-252 -528 -464 -1180q-16 -39 -96 -304q-36 -52 -100 -52h-8q-80 0 -92 48v8l80 196l124 384q244 662 372 916q74 172 120 172h4q112 -23 112 -72zM376 1683q137 0 182 -136q8 -39 12 -88q0 -236 -64 -460q-34 -56 -64 -56
q0 -20 -138 -20t-190 148q-28 77 -28 160q0 187 80 364q73 88 210 88z" />
    <glyph glyph-name="ampersand" unicode="&#x26;" horiz-adv-x="1068" 
d="M410 1554h36q170 0 260 -228q4 -28 4 -48q0 -228 -44 -228q-19 -12 -52 -12h-28q-64 9 -64 48l12 200q0 80 -128 108h-4q-53 -26 -84 -408q0 -77 52 -92q87 8 120 8h4q44 0 44 -104q0 -68 -128 -68q-88 0 -88 -68q-11 0 -16 -120v-104q0 -226 60 -280q51 -32 84 -32
q144 0 144 240v132l-112 -80q-7 -4 -20 -4h-4q-44 0 -68 96q0 42 116 112q329 252 352 252h12q56 0 80 -96q0 -34 -92 -96q-89 -76 -96 -76q12 -140 12 -260q0 -259 -168 -340q-74 -36 -124 -36h-64q-192 0 -264 200q-28 88 -28 212v168q0 167 72 256v4q-60 83 -60 192
q38 552 272 552z" />
    <glyph glyph-name="quotesingle" unicode="'" horiz-adv-x="355" 
d="M151 1549h36q72 0 72 -96v-232q0 -76 -92 -76h-44q-56 0 -56 64v252q0 88 84 88z" />
    <glyph glyph-name="parenleft" unicode="(" horiz-adv-x="604" 
d="M314 658q0 -240 116 -534q68 -146 68 -160q0 -89 -104 -100h-16q-63 0 -104 152q-44 112 -108 424q-16 123 -16 236v28q0 477 292 864q16 12 24 12q108 -26 108 -96q-154 -283 -196 -380q-64 -206 -64 -446z" />
    <glyph glyph-name="parenright" unicode=")" horiz-adv-x="604" 
d="M461 774v-32q0 -380 -204 -736q-85 -156 -108 -156q0 -4 -8 -4q-108 42 -108 96v12q0 9 84 156q176 332 176 660q0 242 -128 588q-61 139 -68 176q0 53 100 84q66 0 168 -328q96 -276 96 -516z" />
    <glyph glyph-name="asterisk" unicode="*" horiz-adv-x="1003" 
d="M699 1561v-8q-43 -109 -112 -252q288 -58 288 -76l8 -12v-32q-8 -72 -64 -72h-4q-118 20 -224 44v-4q28 -84 88 -224v-4q0 -54 -100 -72h-12q-24 0 -128 244h-4l-252 -188l-20 -4q-29 0 -76 76l-4 28q11 30 120 100l152 120q-204 219 -204 240q0 52 84 88q23 0 168 -164
q37 -40 40 -40h4q122 268 140 268l20 4q92 -19 92 -60z" />
    <glyph glyph-name="plus" unicode="+" horiz-adv-x="958" 
d="M435 1164q92 0 108 -52v-4q0 -40 -8 -400l232 -8l24 4q28 -21 28 -84v-24q-4 -72 -24 -72q-42 0 -264 8v-4q0 -166 28 -316q0 -36 -72 -36h-4q-112 0 -112 56q-20 29 -24 280v28q-228 13 -228 24q-12 21 -12 56q5 104 28 104q207 -4 212 -4v4q0 424 20 424q26 16 68 16z
" />
    <glyph glyph-name="comma" unicode="," horiz-adv-x="449" 
d="M114 226q83 0 109 -72q28 -69 28 -220t-152 -292q-34 -16 -52 -16q-92 31 -92 96v4q0 22 64 96q44 67 44 140v8q0 54 -32 220q0 36 83 36z" />
    <glyph glyph-name="hyphen" unicode="-" horiz-adv-x="702" 
d="M604 697q0 -64 -124 -64q-50 -4 -308 -8q-65 0 -80 84v32q0 64 92 64h104q172 0 244 8q63 0 72 -104v-12z" />
    <glyph glyph-name="hyphen" unicode="&#xad;" horiz-adv-x="702" 
d="M604 697q0 -64 -124 -64q-50 -4 -308 -8q-65 0 -80 84v32q0 64 92 64h104q172 0 244 8q63 0 72 -104v-12z" />
    <glyph glyph-name="period" unicode="." horiz-adv-x="372" 
d="M243 94q0 -42 -32 -73q-33 -32 -79 -32t-78 32q-32 31 -32 73t32 74t78 32t79 -32q32 -32 32 -74z" />
    <glyph glyph-name="slash" unicode="/" horiz-adv-x="730" 
d="M566 1657h12q116 -26 116 -76q0 -12 -76 -200q-116 -365 -172 -700q-84 -402 -188 -760q-34 -52 -84 -52h-16q-116 0 -116 60q0 12 52 172q112 326 272 1112q115 444 200 444z" />
    <glyph glyph-name="zero" unicode="0" horiz-adv-x="1060" 
d="M485 108q152 0 208 192q80 356 80 624v160q0 244 -108 304q-39 48 -68 48h-72q-186 0 -240 -516q-20 -64 -32 -356q0 -328 108 -420q78 -36 124 -36zM521 1604h40q146 0 224 -100q160 -148 160 -488q0 -833 -224 -1000q-94 -76 -236 -76q-281 0 -368 304q-24 158 -24 252
v104q0 513 156 832q105 160 192 160q25 12 80 12z" />
    <glyph glyph-name="one" unicode="1" horiz-adv-x="652" 
d="M422 1610h8q51 0 100 -92q-20 -135 -20 -488v-496q0 -190 4 -544q-14 -48 -56 -48h-40q-47 0 -68 48q0 17 -4 184q0 219 -4 808q4 184 4 280v4h-4q-118 -160 -144 -176q-15 -4 -32 -4q-84 12 -84 60v48q79 144 260 356q38 60 80 60z" />
    <glyph glyph-name="two" unicode="2" horiz-adv-x="852" 
d="M453 120q102 0 236 10q32 -13 32 -36q-13 -146 -116 -146h-196q-248 0 -296 60q-16 22 -16 104v20q0 265 244 688q176 247 176 468v20q0 100 -108 116h-48q-76 -10 -76 -72v-16q0 -37 4 -104q0 -35 -96 -40q-76 0 -76 128v40q0 187 204 248q16 4 32 4h60q201 0 264 -220
q8 -44 8 -100v-36q0 -282 -240 -624q-139 -255 -159 -467v-2q0 -43 167 -43z" />
    <glyph glyph-name="three" unicode="3" horiz-adv-x="877" 
d="M483 1609q180 0 224 -232q7 -65 12 -192q0 -174 -60 -304q84 -83 84 -421t-160 -439q-128 -72 -264 -72q-200 0 -200 248v116q0 100 104 100q60 0 60 -64q0 -208 32 -208q1 -8 8 -8h4q105 0 200 76q48 53 48 284v56q0 166 -60 240q-118 -36 -176 -36h-4q-76 0 -76 76v12
q0 82 160 108q92 32 92 80q36 64 36 188v88q0 140 -120 140q-148 -19 -148 -72v-16q8 -113 8 -144q0 -68 -80 -68h-24q-72 0 -72 216q0 199 280 236q62 12 92 12z" />
    <glyph glyph-name="four" unicode="4" horiz-adv-x="910" 
d="M464 1633q64 0 65 -24q0 -59 -236 -816h164q34 320 60 320q38 52 92 52q44 1 44 -53t-32 -303q60 4 88 4h4q92 0 92 -52v-12q0 -104 -112 -104h-76q-16 -147 -16 -312v-24q0 -104 12 -308q-26 -28 -88 -28q-96 0 -96 356q0 87 16 308q-85 -8 -112 -8q-228 0 -228 24
q-21 0 -28 36q0 30 84 244q144 412 208 652q31 48 95 48z" />
    <glyph glyph-name="five" unicode="5" horiz-adv-x="913" 
d="M771 1573q40 0 40 -60v-4q0 -93 -172 -128q-210 -32 -308 -32l12 -248q120 20 148 20q183 0 248 -220q16 -92 16 -132v-20q0 -602 -164 -740q-80 -56 -176 -56q-237 0 -300 180q-16 54 -16 108v64q0 108 100 108h36q28 -13 28 -43t-4 -117q19 -124 108 -124q0 -4 28 -4
h24q85 0 120 108q48 255 48 532v76q-11 124 -124 124h-8q-100 0 -128 -104q-39 -48 -68 -48h-8q-50 0 -88 52l4 20v192q0 123 -8 372q10 76 68 76h24q223 0 516 48h4z" />
    <glyph glyph-name="six" unicode="6" horiz-adv-x="844" 
d="M283 502q0 -283 76 -372q15 -12 28 -12h44q104 0 128 344v16q0 201 -60 248q-33 16 -64 16q-152 0 -152 -240zM443 1578q203 0 240 -84q28 -86 28 -196v-56q0 -71 -56 -84h-44q-52 0 -52 68q0 138 -76 172q-34 8 -40 8q-83 0 -116 -88q-44 -110 -44 -344q4 -103 4 -116h4
q108 56 244 56q159 0 188 -384v-116q0 -355 -244 -460q-22 -4 -36 -4h-48q-187 0 -248 268q-18 0 -28 576q0 554 112 696q105 88 212 88z" />
    <glyph glyph-name="seven" unicode="7" horiz-adv-x="873" 
d="M340 -37h-16q-56 5 -56 52q80 637 184 1056l84 240q0 16 16 68l-48 4q-113 0 -380 -4q-23 0 -28 44v48q0 67 80 76q258 0 552 12q50 -8 52 -20v-16l-168 -508q-72 -249 -168 -920q-37 -132 -104 -132z" />
    <glyph glyph-name="eight" unicode="8" horiz-adv-x="856" 
d="M293 494v-116q0 -228 92 -280l20 -4h8q105 0 136 124q4 89 4 144v12q0 319 -128 380q-132 -54 -132 -260zM569 1230v152q-13 76 -60 76q-83 0 -148 -56q-36 -49 -36 -156q-3 0 -8 -80q0 -121 124 -220q128 107 128 284zM521 1618q140 0 192 -124q24 -56 24 -144v-120
q0 -205 -176 -376q152 -98 152 -532v-88q0 -248 -264 -300q-17 -8 -64 -8q-158 0 -208 116q-52 141 -52 544q0 146 168 288q-140 115 -140 316v8q0 282 132 356q129 64 236 64z" />
    <glyph glyph-name="nine" unicode="9" horiz-adv-x="865" 
d="M277 1113v-56q0 -183 112 -216h56q35 0 128 48q4 105 4 124q0 295 -60 360q-34 12 -100 12q-98 0 -128 -172q-12 -55 -12 -100zM433 1553h48q160 0 228 -204q36 -206 36 -492v-36q0 -735 -152 -788q-108 -80 -216 -80q-172 0 -236 144q-32 70 -32 172v160q0 36 44 36h36
q76 0 76 -60q4 -42 4 -92v-8q0 -9 -4 -16q22 -164 96 -164h32q120 0 164 144q24 95 24 225t-8 223h-8q-99 -48 -192 -48h-16q-180 0 -244 312q-4 28 -4 80v56q0 298 200 416q58 20 124 20z" />
    <glyph glyph-name="colon" unicode=":" horiz-adv-x="404" 
d="M292 900q0 -42 -32 -74t-78 -32t-79 32q-32 32 -32 74t32 73q33 32 79 32t78 -32q32 -31 32 -73zM281 428q0 -42 -32 -73q-33 -32 -79 -32t-78 32q-32 31 -32 73t32 74t78 32t79 -32q32 -32 32 -74z" />
    <glyph glyph-name="semicolon" unicode=";" horiz-adv-x="460" 
d="M344 504q0 -42 -32 -74t-78 -32t-79 32q-32 32 -32 74t32 73q33 32 79 32t78 -32q32 -31 32 -73zM137 -342q-65 0 -112 52v4q0 8 44 84q60 99 60 292q9 100 32 100q156 0 156 -108q-24 -263 -68 -336q-47 -88 -112 -88z" />
    <glyph glyph-name="semicolon" unicode="&#x37e;" horiz-adv-x="460" 
d="M344 504q0 -42 -32 -74t-78 -32t-79 32q-32 32 -32 74t32 73q33 32 79 32t78 -32q32 -31 32 -73zM137 -342q-65 0 -112 52v4q0 8 44 84q60 99 60 292q9 100 32 100q156 0 156 -108q-24 -263 -68 -336q-47 -88 -112 -88z" />
    <glyph glyph-name="less" unicode="&#x3c;" horiz-adv-x="775" 
d="M506 1023q46 0 120 -84v-20q-207 -239 -332 -416q0 -21 248 -328q48 -61 64 -112q0 -37 -112 -84h-8q-275 295 -392 484q-16 31 -16 40q0 83 220 308q81 97 196 212h12z" />
    <glyph glyph-name="equal" unicode="=" horiz-adv-x="911" 
d="M463 686q227 0 296 -40q16 -23 16 -36q-12 -112 -44 -112q-82 12 -220 12h-20q-146 0 -372 -20q-22 0 -28 44q0 136 124 136q184 16 248 16zM395 1018h48q336 -15 336 -68q12 -2 12 -32v-36q0 -64 -40 -64h-4q-207 24 -260 24h-112q-73 0 -240 -28q-36 0 -36 104
q0 60 112 80q91 20 184 20z" />
    <glyph glyph-name="greater" unicode="&#x3e;" horiz-adv-x="801" 
d="M244 1135h4q23 0 116 -104q225 -243 284 -332q28 -51 28 -84q-26 -82 -336 -456q-84 -105 -100 -116h-8q-51 0 -112 72v8q0 54 208 312q107 126 132 184q-127 179 -332 416v16q65 84 116 84z" />
    <glyph glyph-name="question" unicode="?" horiz-adv-x="840" 
d="M284 146h88q56 0 56 -64v-104q0 -68 -88 -68h-24q-67 0 -80 44l4 40v100q7 52 44 52zM280 1590h112q324 0 324 -388q0 -178 -196 -408q-88 -157 -88 -432q-27 -20 -92 -20h-32q-60 7 -60 44v12q0 402 216 620q64 106 64 192q0 158 -72 196l-24 4h-112q-44 -6 -44 -76
q8 -167 8 -248q-27 -20 -68 -20h-40q-76 6 -76 48q-4 190 -4 220q0 91 60 204q45 52 124 52z" />
    <glyph glyph-name="at" unicode="@" horiz-adv-x="1399" 
d="M612 760v-40q13 -264 72 -264q38 4 84 40q28 456 28 512h-4q-44 4 -44 8q-99 0 -128 -160q-8 -51 -8 -96zM720 -384q-256 0 -464 304q-160 223 -160 620v120q0 674 224 968q141 116 392 116q386 0 512 -328q40 -114 40 -244v-64q-15 -596 -48 -656q-24 -136 -75 -198
t-168 -62t-173 104q-4 7 -4 16q-104 -24 -124 -24q-164 0 -220 308q-8 46 -8 112v20q0 324 188 428q47 16 72 16h76l40 -4v52q0 8 24 12q132 0 132 -64q-40 -656 -40 -692q19 -56 52 -56h12q73 0 100 728q0 424 -376 424h-32q-267 0 -316 -164q-112 -276 -112 -863t392 -749
q28 -8 48 -8h56q87 4 214 126h16q54 0 88 -84v-12q-111 -202 -334 -202h-24z" />
    <glyph glyph-name="A" unicode="A" horiz-adv-x="1052" 
d="M334 728q207 0 380 20q4 113 -36 309q-60 162 -106 314q-82 -1 -79 -32q-33 -101 -112 -327q-8 -67 -55 -284h8zM220 -32q-64 0 -78 16q-4 166 -4 248v16q11 169 43 618q39 264 132 440t125 214t108 44q90 24 142 -44q7 -47 67 -122q29 -129 99 -438q88 -630 72 -924
q0 -44 -100 -44q-72 4 -76 24l-32 564q-155 0 -400 -16q-12 -177 -16 -312q8 -212 8 -256q-26 -28 -90 -28z" />
    <glyph glyph-name="B" unicode="B" horiz-adv-x="937" 
d="M281 484q0 -116 12 -334l28 -4h44q213 0 260 136q8 44 8 100v16q0 277 -128 344q-16 8 -44 8h-28q-68 0 -148 -12q-4 -138 -4 -254zM293 934h4q232 0 296 180q12 43 12 72v24q0 128 -60 164q-57 24 -116 24h-120l-16 -336v-128zM409 1578q237 0 316 -176q36 -110 36 -188
q0 -211 -152 -336q107 -62 156 -224q28 -94 28 -316t-204 -300q-118 -44 -260 -44h-104q-92 0 -92 20v32q-8 606 -8 672v84q22 732 40 732q55 44 244 44z" />
    <glyph glyph-name="C" unicode="C" horiz-adv-x="1036" 
d="M631 1577h24q180 0 236 -132q12 -47 16 -92q0 -212 -88 -212q-25 -4 -59 -4t-33 20q0 68 8 196q0 56 -108 56q-234 0 -288 -96q-56 -169 -56 -424v-312q0 -316 92 -384q161 -64 276 -64h20q56 7 56 48v68q0 28 -12 224q0 19 112 44h20q40 0 40 -132q12 -151 12 -176
q0 -168 -128 -224q-52 -16 -100 -16h-52q-217 0 -392 132q-116 130 -116 636q0 624 144 748q149 96 376 96z" />
    <glyph glyph-name="D" unicode="D" horiz-adv-x="905" 
d="M438 1405h-32q-104 0 -104 -52v-152q14 -1048 24 -1048q101 9 192 96q92 121 92 284q-15 812 -56 812q-40 60 -116 60zM386 1569h44q202 0 276 -164q48 -77 48 -312q12 -73 24 -596q0 -375 -372 -504q-90 -24 -184 -24q-72 0 -72 64q-5 36 -8 44q4 84 4 136
q-16 752 -16 1012v136q0 168 20 168q57 40 236 40z" />
    <glyph glyph-name="E" unicode="E" horiz-adv-x="791" 
d="M655 1548q16 0 16 -60v-48q0 -48 -44 -48h-56q-137 0 -288 -8q0 -30 24 -476l280 8q32 0 32 -82t-48 -82l-260 -12q8 -411 16 -568q106 12 304 24q32 0 40 -56v-48q-11 -63 -38 -72q-24 -14 -32 -10q-118 0 -121 2q-124 -6 -313 -8q-12 24 -12 76v544q0 397 -48 884
q9 40 80 40h468z" />
    <glyph glyph-name="F" unicode="F" horiz-adv-x="897" 
d="M756 1386h-48q-57 0 -428 28q4 -402 8 -524l444 -8l8 -12v-40q-8 -112 -56 -112h-4q-64 0 -384 4q8 -182 8 -411t8 -325q-30 -28 -80 -28h-28q-60 0 -60 48q-13 0 -28 1484v48q0 52 64 52q310 -36 584 -44q16 -17 16 -72q-6 -88 -24 -88z" />
    <glyph glyph-name="G" unicode="G" horiz-adv-x="1052" 
d="M646 1580h20q195 0 244 -84q16 0 16 -248v-164q0 -57 -72 -64h-56q-40 0 -44 24q12 305 12 356q-93 12 -132 12q-188 0 -248 -68q-112 -312 -112 -696t112 -468q24 -28 244 -40q45 4 80 4l8 392q-228 26 -228 40l-4 20v48q6 76 36 76q356 -18 356 -40l8 -28v-156
q0 -46 -4 -84q12 -220 12 -280v-24q0 -132 -144 -132q-63 0 -120 -8q-241 0 -388 116q-128 129 -128 500v96q0 506 156 792q115 108 376 108z" />
    <glyph glyph-name="H" unicode="H" horiz-adv-x="1097" 
d="M723 579v112l-372 24v-4q0 -123 16 -708q0 -38 -92 -44q-72 0 -72 68q-24 323 -24 640v288q0 64 -36 608q0 32 84 48h32q56 -3 56 -20q36 -560 36 -692q234 -28 372 -36l32 760q23 24 60 24q132 -11 132 -72q-16 -296 -52 -1180q0 -117 32 -380q0 -39 -96 -48
q-92 0 -92 152q-16 355 -16 460z" />
    <glyph glyph-name="I" unicode="I" horiz-adv-x="404" 
d="M207 0h-8q-43 0 -64 32q-36 858 -52 1480q0 48 64 48l56 4q43 0 52 -128q16 -759 44 -1376q-12 -60 -92 -60z" />
    <glyph glyph-name="J" unicode="J" horiz-adv-x="860" 
d="M740 649v-192q0 -346 -124 -420q-114 -108 -308 -108h-88q-132 0 -132 212v272q0 27 144 32q18 -8 20 -16q0 -42 8 -332h8q249 0 300 212q4 26 4 95t4 97q-4 316 -16 664q0 287 52 380q18 15 80 15t72 -27q-36 -253 -36 -396q12 -252 12 -488z" />
    <glyph glyph-name="K" unicode="K" horiz-adv-x="918" 
d="M782 1468q0 -115 -259 -406q-62 -79 -155 -180q372 -625 475 -836q0 -39 -82 -82l-24 -4h-5q-59 0 -131 172q-130 234 -176 303q-38 80 -156 279h-4v-4q29 -472 29 -643q-15 -70 -119 -70q-53 5 -53 41q0 96 -41 1462q30 62 119 62q49 -6 49 -21l16 -483q223 225 283 332
q10 2 68 89t80 87h8q78 -30 78 -98z" />
    <glyph glyph-name="L" unicode="L" horiz-adv-x="918" 
d="M289 1535v-204q0 -186 24 -648q-4 -364 -4 -492q4 0 4 4q145 8 284 8h28q46 0 140 -4q28 -26 28 -72v-12q0 -85 -56 -100h-40q-335 0 -524 -28q-28 21 -28 108q0 162 -4 216l8 488q-28 236 -28 512v240q10 27 89 27t79 -43z" />
    <glyph glyph-name="M" unicode="M" horiz-adv-x="1162" 
d="M897 1574h4q71 0 108 -40q-24 -298 -36 -696q32 -727 40 -804q-20 -52 -94 -52t-74 64q-36 432 -36 800q0 100 4 284q4 8 4 12q-193 -306 -232 -352q-21 -16 -36 -16h-8q-40 0 -104 132q-28 35 -108 176h-4q60 -849 72 -1076q-36 -40 -140 -40h-8q-40 0 -40 260
q-60 1003 -92 1236v28q0 80 89 80t123 -80q107 -210 224 -416h4q286 474 308 492q15 8 32 8z" />
    <glyph glyph-name="N" unicode="N" horiz-adv-x="926" 
d="M652 1319v216q0 32 40 32q116 0 116 -80q0 -662 -24 -1520q-7 -32 -57 -32q-16 0 -36 3q-85 12 -87 61q-160 658 -320 1068h-4q20 -397 20 -595t-8 -509q-21 -24 -52 -24q-104 18 -104 104q-4 610 -4 892v124q0 144 -4 444q-4 8 -4 12q0 44 96 56q62 0 100 -140
q168 -378 312 -908h4q16 343 16 796z" />
    <glyph glyph-name="O" unicode="O" horiz-adv-x="1032" 
d="M272 675q0 -422 128 -524q91 -32 152 -32q141 0 184 652q4 97 4 148q0 346 -152 512q-13 8 -24 8h-12q-77 0 -208 -100q-41 -78 -68 -568q-4 -12 -4 -96zM540 1607h36q250 0 328 -592q0 -58 4 -248q0 -381 -148 -684q-98 -132 -232 -132q-272 0 -372 272q-48 178 -48 432
q0 629 136 828q211 124 296 124z" />
    <glyph glyph-name="P" unicode="P" horiz-adv-x="905" 
d="M294 819v-84h32q202 0 264 144q48 91 48 248v40q0 140 -120 212q-66 24 -121 24t-115 -8q12 -308 12 -576zM302 1567h60q314 0 404 -228q20 -148 20 -232q0 -544 -448 -544h-44v-508q0 -76 -84 -76h-4q-80 0 -80 80v916q0 205 -4 536q16 48 96 48q50 8 84 8z" />
    <glyph glyph-name="Q" unicode="Q" horiz-adv-x="1060" 
d="M270 841v-304q0 -304 160 -396q53 -16 76 -16v4q-48 105 -48 148q0 52 72 52q39 0 84 -84q26 -60 32 -60q108 129 108 384q-15 616 -36 616q0 85 -84 196q-39 28 -72 28q-292 0 -292 -568zM574 1577h56q96 0 176 -120q108 -227 108 -712v-108q0 -441 -204 -628
q55 -115 156 -240q56 -49 56 -80q0 -51 -88 -72q-82 0 -172 140q-32 44 -72 120t-48 80h-56q-143 0 -256 144q-128 178 -128 580v168q0 531 260 680q119 48 212 48z" />
    <glyph glyph-name="R" unicode="R" horiz-adv-x="958" 
d="M313 1092q0 -124 4 -269q6 -16 12 -16h24q184 0 232 116q48 92 48 192v20q0 244 -312 244q-8 -163 -8 -287zM797 1071q0 -213 -200 -372l-20 -8q0 -14 156 -348q96 -246 96 -296v-8q-25 -68 -116 -68h-12q-23 0 -88 184q-80 191 -228 488h-52v-204q-17 -476 -44 -476
q-14 -12 -48 -12h-52q-36 0 -44 48q0 68 16 500q-8 235 -8 460v488q0 84 68 84q1 12 136 16q313 0 412 -260q28 -83 28 -216z" />
    <glyph glyph-name="S" unicode="S" horiz-adv-x="856" 
d="M407 1563h16q199 0 276 -204q8 -50 8 -84v-76q0 -128 -108 -128q-47 0 -64 36q4 104 4 164v12q0 112 -140 112q-76 0 -100 -108q-8 -38 -12 -252l-4 -16q0 -99 96 -136q31 -15 180 -32q89 -23 136 -96q52 -109 52 -228v-52q0 -328 -124 -424q-140 -104 -264 -104h-4
q-177 0 -228 140q-12 52 -12 80q0 232 44 232q0 9 36 12h28q36 0 56 -28q0 -41 -8 -172q19 -96 88 -96q120 0 188 116q28 71 28 256v16q0 130 -92 164q-29 11 -180 36q-132 53 -132 100q-48 52 -48 280v108q0 372 284 372z" />
    <glyph glyph-name="T" unicode="T" horiz-adv-x="982" 
d="M639 1535h92q148 0 148 -52v-28q0 -76 -48 -76q-113 0 -288 -8q12 -189 12 -460v-368q0 -276 -8 -528q-16 -28 -64 -28h-8q-88 10 -88 60q0 275 4 1316l-312 -12q-16 19 -16 48q0 112 128 112q341 24 448 24z" />
    <glyph glyph-name="U" unicode="U" horiz-adv-x="979" 
d="M732 1563h12q76 0 96 -136q12 -80 16 -352q0 -862 -148 -1072q0 -16 -84 -28h-72q-247 0 -368 212q-64 177 -64 456v52q0 45 16 584q0 57 -4 264q15 12 36 12h44q92 0 92 -180v-224q-16 -292 -16 -444v-108q0 -350 120 -420q68 -28 124 -28q80 5 80 56q37 55 60 348
q28 267 28 525t-32 467q17 16 64 16z" />
    <glyph glyph-name="V" unicode="V" horiz-adv-x="999" 
d="M196 1534q103 0 199 -548q69 -331 97 -546q184 883 212 1002q27 76 112 76q40 0 48 -60q0 -95 -240 -1140q-43 -280 -76 -280q0 -28 -96 -28q-62 0 -100 352q-132 797 -224 996q-28 93 -28 128v16q0 24 92 32h4z" />
    <glyph glyph-name="W" unicode="W" horiz-adv-x="1170" 
d="M162 1603q76 0 100 -172q0 -23 130 -1018q31 105 75 251t91 147h4q59 0 172 -422l32 196q48 255 124 938q27 16 48 16h32q80 -12 80 -72q-136 -1251 -204 -1424q-33 -84 -64 -84h-20q-8 -1 -15 -1q-67 0 -85 93q-36 113 -102 356h-4q-80 -372 -118 -412q-32 -12 -48 -12
q-92 0 -120 96q-68 481 -188 1480q24 44 80 44z" />
    <glyph glyph-name="X" unicode="X" horiz-adv-x="893" 
d="M780 1494v-8q-144 -369 -248 -732l224 -744q0 -51 -76 -68h-36q-45 16 -92 168q-16 61 -124 396h-4q-76 -314 -152 -516q-28 -24 -44 -24q-71 0 -100 52v4q60 278 200 732q-80 284 -136 460q-92 212 -92 280q0 36 108 44q83 0 224 -536v-4h4q154 568 248 568
q96 -28 96 -72z" />
    <glyph glyph-name="Y" unicode="Y" horiz-adv-x="840" 
d="M684 1542q71 0 84 -100q-122 -179 -312 -568q16 -382 16 -684v-28q0 -192 -84 -192h-32q-60 0 -60 16q0 100 8 416q-4 93 -12 428q-156 450 -240 652v20q0 49 88 56l24 4q77 -112 172 -376q28 -78 36 -116h4q123 272 236 432q24 40 72 40z" />
    <glyph glyph-name="Z" unicode="Z" horiz-adv-x="873" 
d="M583 1538h112q72 -4 72 -24v-28q0 -66 -100 -256q-404 -875 -404 -1072q157 -20 384 -20h36q32 0 32 -36v-48q-13 -76 -72 -76h-160q-289 0 -376 68q-16 23 -16 32q0 329 364 1064q0 11 100 224q-147 7 -396 12q-12 17 -12 32q0 120 76 120q78 8 360 8z" />
    <glyph glyph-name="bracketleft" unicode="[" horiz-adv-x="693" 
d="M314 1570h212q44 0 44 -88t-48 -88q-23 0 -192 -4q-12 -212 -12 -552v-616q0 -80 4 -240q172 4 212 4q20 -21 20 -64v-36q0 -72 -96 -72q0 -8 -240 -12q-76 11 -76 44q-4 416 -4 636v68q12 940 40 980q43 40 136 40z" />
    <glyph glyph-name="backslash" unicode="\" horiz-adv-x="928" 
d="M195 1670q60 0 104 -196q428 -1330 480 -1476q44 -92 44 -124q0 -39 -120 -52q-89 0 -128 188q-504 1499 -504 1600q48 60 124 60z" />
    <glyph glyph-name="bracketright" unicode="]" horiz-adv-x="579" 
d="M448 1266q0 -141 -4 -884l12 -516q-12 -52 -92 -52q-97 8 -256 12q-36 16 -36 64q5 108 20 108h40q17 0 32 4q17 -4 92 -8q4 107 4 168v1232q-19 0 -188 -12q-28 12 -28 36v48q0 88 96 88q194 12 252 12q60 -25 60 -104q-4 -55 -4 -196z" />
    <glyph glyph-name="asciicircum" unicode="^" horiz-adv-x="983" 
d="M485 1445h12q81 0 152 -212q208 -426 208 -448q0 -47 -104 -84h-8q-56 0 -72 32q-88 176 -184 416q-6 -2 -176 -344q-50 -92 -80 -92h-8q-108 36 -108 84v16q176 396 304 592q29 40 64 40z" />
    <glyph glyph-name="underscore" unicode="_" horiz-adv-x="1048" 
d="M123 -97q25 0 268 -8q440 4 540 4q20 -21 20 -60q0 -120 -60 -120h-284q-92 0 -220 -4q-276 7 -276 24q-28 26 -28 68q0 96 40 96z" />
    <glyph glyph-name="grave" unicode="`" horiz-adv-x="579" 
d="M142 2037h12q276 -162 352 -188l16 -20v-12q-2 -47 -23 -87t-42 -40q-5 0 -11 3q-58 16 -284 136q-104 40 -104 88q42 120 84 120z" />
    <glyph glyph-name="a" unicode="a" horiz-adv-x="905" 
d="M322 840q-40 -171 -50 -254l344 -16l-29 203q-35 119 -80 242t-37 142q-10 -9 -60 -111t-88 -206zM672 -2h-52q-44 0 -44 36q8 115 24 368l-328 20q0 -82 4 -400q4 -35 4 -44q0 -40 -132 -40q-34 0 -44 56l20 752q162 480 262 550q19 35 92 64l79 -57q65 -74 129 -312
q27 -88 79 -373l-13 -588q-29 -32 -80 -32z" />
    <glyph glyph-name="b" unicode="b" horiz-adv-x="710" 
d="M245 105q167 0 216 196q8 63 8 108v12q0 140 -144 140q-61 -4 -84 -12l-8 -444h12zM225 865v-28q0 -34 4 -108h4q95 14 164 76q60 85 60 188q0 134 -92 168l-60 12q-72 -7 -72 -16q-8 -182 -8 -292zM265 1337q238 0 300 -140q40 -80 40 -172q0 -226 -112 -324
q128 -81 128 -320q0 -153 -100 -324q-43 -59 -144 -88q-142 -32 -228 -32h-32q-37 0 -44 64q0 30 8 220q-8 242 -8 371t20 569q-4 35 -4 92q23 74 148 84h28z" />
    <glyph glyph-name="c" unicode="c" horiz-adv-x="660" 
d="M354 1317h120q73 0 100 -128q16 -55 16 -272q0 -42 -92 -48h-28q-44 0 -46 138t-14 138h-60q-108 0 -108 -160v-124q0 -228 -12 -644q0 -107 174 -120q42 20 42 192v24q0 25 32 28q116 -11 116 -84q4 -39 4 -74q0 -192 -126 -248q-43 -15 -116 -15t-194 57
q-84 60 -84 160q-4 446 -4 600q0 439 88 532q55 48 192 48z" />
    <glyph glyph-name="d" unicode="d" horiz-adv-x="783" 
d="M535 635q0 500 -144 500q-5 9 -76 16l-60 -8q16 -523 16 -588q-4 -354 -4 -460q198 25 198 70q60 45 70 446v24zM343 1323q213 0 284 -204q60 -239 60 -512q0 -471 -124 -600q-127 -76 -340 -76q-104 0 -104 60v4q0 461 -4 1224q0 60 60 84q73 20 168 20z" />
    <glyph glyph-name="e" unicode="e" horiz-adv-x="738" 
d="M218 1319q50 0 290 -4q92 0 92 -56v-52q0 -68 -44 -68h-76q-70 0 -192 -12v-28q0 -93 -4 -268l264 20q44 0 44 -96v-24q0 -52 -60 -52q-30 -4 -256 -20l8 -508q85 0 324 16q38 0 40 -64v-16q0 -96 -68 -96l-376 -28h-8q-88 0 -88 44q-16 291 -16 624v68q12 600 52 600
q24 20 74 20z" />
    <glyph glyph-name="f" unicode="f" horiz-adv-x="734" 
d="M637 1264q0 -128 -32 -128q-42 0 -320 12l8 -312q174 -8 268 -8h12q21 0 19 -84t-19 -84l-260 -12q4 -292 4 -448v-164q0 -68 -40 -68h-108q-40 0 -40 88v348q0 287 -32 884q0 44 120 52q83 0 408 -44q12 -20 12 -32z" />
    <glyph glyph-name="g" unicode="g" horiz-adv-x="795" 
d="M416 1341q183 0 248 -96q12 -37 12 -68v-232q0 -60 -80 -60h-12q-84 0 -84 60q4 181 4 212q-72 20 -104 20q-109 0 -128 -136q-12 -90 -12 -244v-552q0 -103 108 -124q21 0 36 -4q42 4 124 20l12 264q-110 -8 -136 -8q-12 20 -12 52v24q0 104 72 104q0 7 60 8h16
q143 0 152 -40v-172q0 -392 -76 -392q-37 -16 -216 -24q-205 0 -272 108q-20 0 -32 460q0 625 100 760q40 40 144 60h76z" />
    <glyph glyph-name="h" unicode="h" horiz-adv-x="824" 
d="M624 1327q70 0 84 -44l-16 -540q0 -196 40 -728q-30 -40 -100 -40h-16q-76 0 -76 76q-20 168 -36 540l-228 -16v-68q0 -419 12 -524q-19 -64 -128 -64q-49 0 -64 28q-8 468 -12 1272q0 92 40 92l56 4q96 -6 96 -40q-4 -263 -4 -396v-120l236 12q17 472 28 528
q17 28 80 28h8z" />
    <glyph glyph-name="i" unicode="i" horiz-adv-x="440" 
d="M169 1249h52q72 0 72 -152q4 -48 4 -144v-80q0 -177 -16 -812q0 -60 -100 -72q-73 0 -84 36q0 277 20 848q-8 260 -16 336q0 40 68 40z" />
    <glyph glyph-name="j" unicode="j" horiz-adv-x="693" 
d="M456 1334h80q50 0 56 -64v-88q0 -213 4 -412q0 -618 -88 -776q-85 -80 -192 -80h-4q-200 0 -244 132q-20 46 -20 128q0 228 76 228h32q76 0 76 -32q-20 -131 -20 -156v-4q0 -4 -4 -4q0 -108 80 -108h12q60 0 60 40q48 96 48 460v584q0 40 -4 96q14 56 52 56z" />
    <glyph glyph-name="k" unicode="k" horiz-adv-x="889" 
d="M708 1316q54 0 94 -44v-16q0 -41 -61 -110q-209 -309 -316 -486q107 -230 221 -398t113 -198q0 -2 -1 -4q-25 -84 -76 -84h-20q-67 0 -208 272q-128 233 -164 320h-4q-4 -154 -8 -228q4 -141 20 -336q0 -44 -116 -44q-68 0 -68 80q-4 66 -12 372q4 410 16 612
q-12 193 -32 256q28 28 124 28q84 -33 84 -236q4 0 4 -98t-8 -206v-4h4q118 202 284 440q76 112 130 112z" />
    <glyph glyph-name="l" unicode="l" horiz-adv-x="673" 
d="M309 1218q0 -486 -48 -1076h240q71 0 92 -32q8 -32 8 -40v-36q0 -72 -96 -72h-292q-116 0 -144 60v12q20 254 60 1264q24 48 140 48q44 -5 44 -44q-4 -60 -4 -84z" />
    <glyph glyph-name="m" unicode="m" horiz-adv-x="999" 
d="M871 1305q0 -134 -20 -882v-28q0 -203 36 -416q0 -42 -108 -48q-76 0 -76 104q-23 149 -23 265t7 627q-153 -321 -171 -335t-29 -13h-32q-71 37 -216 408q48 -816 64 -992q-29 -52 -116 -52h-20q-48 0 -48 64q-28 315 -56 1252q0 92 140 132q41 -5 276 -542
q168 376 208 508q31 40 84 40q100 -10 100 -92z" />
    <glyph glyph-name="n" unicode="n" horiz-adv-x="938" 
d="M161 1352h40q61 0 86 -56q18 -35 52 -236q75 -205 163 -364t156 -312q-16 178 -16 424t7 492q0 52 64 52h28q85 0 96 -28q-20 -255 -20 -449t24 -847q-26 -56 -92 -56q0 -8 -48 -8h-4q-52 0 -84 104q-133 289 -256 504l-87 181l33 -753q0 -52 -91 -52t-91 52v20l-24 1032
q-4 171 -4 268q13 32 68 32z" />
    <glyph glyph-name="o" unicode="o" horiz-adv-x="722" 
d="M324 120q115 0 136 444v180q0 227 -72 364q-24 28 -60 28q-65 0 -96 -324q-10 0 -16 -132q19 -560 108 -560zM296 -56q-163 0 -216 392q-20 166 -20 324v92q0 437 148 540q50 28 136 40q187 0 252 -300q28 -207 28 -396q-17 -468 -40 -468q-13 -69 -84 -152
q-85 -72 -204 -72z" />
    <glyph glyph-name="p" unicode="p" horiz-adv-x="706" 
d="M227 1030v-30q0 -152 19 -407q132 42 190 138q29 39 41 142q0 89 -63 198q-87 89 -183 89q-4 -88 -4 -130zM623 879v-40q0 -289 -336 -408q-16 -6 -16 -12q0 -120 40 -460q-24 -28 -88 -28q-80 0 -80 72q-40 413 -60 980v32q0 316 36 316q54 12 88 12q156 -18 228 -60
q188 -130 188 -404z" />
    <glyph glyph-name="q" unicode="q" horiz-adv-x="799" 
d="M219 640v-32q26 -490 124 -490h2l26 14q-16 52 -22 87q6 78 90 86q35 -2 64 -33q61 155 61 383v7q-5 331 -57 458q-36 72 -88 72h-20q-78 0 -152 -212q-28 -134 -28 -340zM447 1384h16q150 0 232 -312q24 -177 24 -348q2 -43 2 -84q0 -311 -126 -536q58 -146 168 -276
q4 -11 4 -21q0 -44 -72 -81q-12 -3 -24 -3q-45 -1 -91 55t-111 192q-61 -40 -114 -40q-167 10 -204 118q-84 232 -84 640q0 487 180 616q96 80 200 80z" />
    <glyph glyph-name="r" unicode="r" horiz-adv-x="754" 
d="M221 1002q0 -122 16 -293h40q129 0 176 160q12 46 12 96v12q0 220 -220 220h-20q-4 -73 -4 -195zM297 1369q162 0 272 -160q52 -117 52 -248q0 -225 -156 -352q122 -332 240 -568v-8q0 -43 -132 -80q-28 0 -96 188q-160 385 -172 400h-4q-2 0 -52 -4l36 -592
q-28 -20 -76 -20h-8q-76 0 -76 48q-40 618 -60 1312q0 72 40 72q113 12 192 12z" />
    <glyph glyph-name="s" unicode="s" horiz-adv-x="697" 
d="M417 1331q121 0 178 -129q24 -84 34 -260q0 -96 -72 -96q-102 9 -102 40q1 25 1 47q0 188 -79 188h-20q-84 0 -84 -129v-42q10 -187 226 -276q91 -71 91 -304q0 -23 -1 -48v-31q0 -268 -72 -331q-79 -54 -192 -54h-4q-169 0 -224 139q-40 99 -40 238v58q0 68 44 93
q27 7 76 11q64 -11 64 -61q-8 -64 -12 -131q0 -129 96 -147h16q56 0 64 97v38q0 248 -48 297q-264 132 -264 404v88q0 218 192 289q72 12 132 12z" />
    <glyph glyph-name="t" unicode="t" horiz-adv-x="848" 
d="M55 1194v75q0 47 34 51q323 24 473 24t197 -1q35 0 40 -50v-67q-3 -44 -43 -44l-243 -12q-15 -280 -15 -450l10 -370q0 -159 -11 -379q-1 -17 -86 -17h-44q-50 2 -54 9t-4 11t6 92q6 86 6 247l-11 441q0 175 17 407l-232 -17q-40 0 -40 50z" />
    <glyph glyph-name="u" unicode="u" horiz-adv-x="738" 
d="M234 735q0 -464 44 -540q24 -32 56 -32h4q116 0 116 128q16 151 16 348v244q0 138 -8 364q0 31 88 36h48q47 0 56 -152q4 -96 4 -152v-304q0 -529 -120 -660q-54 -44 -220 -44q-166 1 -207 119t-41 513q-4 148 -4 452q12 244 36 244q35 20 72 20q88 -8 88 -40
q-28 -420 -28 -544z" />
    <glyph glyph-name="v" unicode="v" horiz-adv-x="816" 
d="M208 1360q37 0 68 -264q36 -194 124 -760h4l164 1004q17 16 32 16h8q114 -12 124 -40v-24q-132 -787 -228 -1212q-21 -72 -72 -72h-64q-94 0 -136 432q-84 393 -176 876q0 44 152 44z" />
    <glyph glyph-name="w" unicode="w" horiz-adv-x="1101" 
d="M871 1373h72q60 0 60 -100q4 -55 4 -120q0 -326 -120 -900q-89 -304 -180 -304q-19 -4 -52 -4q-27 0 -48 120q-36 108 -68 244h-4q-112 -314 -128 -340q-21 -20 -52 -20q-124 0 -124 108q-100 633 -160 1284q11 28 52 28h56q58 0 84 -64q112 -960 112 -992h8
q96 349 120 392q15 12 28 12h16q49 0 68 -64q12 -66 92 -328h4q88 396 88 488q4 11 36 540q21 20 36 20z" />
    <glyph glyph-name="x" unicode="x" horiz-adv-x="775" 
d="M65 1302q0 28 112 64q58 0 140 -360q48 -165 48 -184h4q128 410 204 520l8 4h20q72 0 92 -36v-16q-19 -66 -88 -240q-84 -233 -148 -428q68 -212 220 -572v-12q0 -43 -112 -84h-12q-15 0 -100 200q-49 125 -92 272h-4q-110 -492 -132 -492l-16 -8q-116 10 -116 44v24
q52 310 160 620q-52 216 -108 424l-80 236v24z" />
    <glyph glyph-name="y" unicode="y" horiz-adv-x="750" 
d="M171 1398q31 0 48 -112q64 -221 108 -408h4q184 495 196 508h12q73 0 132 -62v-16q-76 -234 -228 -600l-24 -64q-27 -686 -38 -686q-21 -28 -36 -28q-107 -4 -127 -2t-19 10q8 446 20 688q0 66 -164 672q-4 0 -4 24v4q0 50 116 72h4z" />
    <glyph glyph-name="z" unicode="z" horiz-adv-x="759" 
d="M109 1334h376q136 0 136 -96q0 -77 -128 -400q-92 -288 -216 -708q211 16 344 16q24 -8 24 -44v-4q-7 -124 -36 -124q-323 -16 -413 -16t-115 68v24q0 21 116 444q156 492 220 668h-260q-92 0 -92 52v8q0 112 44 112z" />
    <glyph glyph-name="braceleft" unicode="{" horiz-adv-x="706" 
d="M497 1580q100 0 100 -96v-28q0 -44 -120 -44q-92 0 -92 -60q-4 0 -4 -20l20 -480q0 -91 -96 -208q80 -84 80 -180q-4 -344 -4 -424q0 -140 48 -140q56 -4 96 -4h28q48 0 48 -92q-11 -76 -36 -76q-36 0 -172 -4q-115 0 -160 116q-36 70 -36 272v316q0 102 -116 152
q-12 48 -12 76v28q140 117 140 160q4 35 4 44l-20 444q0 182 192 244l40 4h72z" />
    <glyph glyph-name="bar" unicode="|" horiz-adv-x="485" 
d="M205 1468q90 0 90 -85v-84q0 -383 20 -703q-1 -56 -1 -207t12 -322t11 -180q0 -60 -115 -60q-64 1 -66 43t-28 461q6 201 6 257q-19 446 -19 813q0 62 57 67h33z" />
    <glyph glyph-name="braceright" unicode="}" horiz-adv-x="714" 
d="M152 1545h52q216 0 260 -312v-340q0 -84 72 -100q48 0 68 -112q-13 -47 -76 -84q-20 -56 -20 -96l12 -472q0 -185 -132 -264q-142 -48 -228 -48h-8q-31 0 -44 24v84q0 80 88 80q140 22 140 68q8 38 8 60v44q-24 329 -24 417t56 183q-100 71 -100 240q8 71 8 180v20
q0 252 -92 252h-112q-44 0 -44 68v68q23 40 116 40z" />
    <glyph glyph-name="asciitilde" unicode="~" horiz-adv-x="1068" 
d="M958 700v-12q0 -78 -92 -216q-76 -80 -164 -80h-20q-130 0 -264 192h-4q-51 0 -108 -76q-19 -49 -64 -88h-52q-38 0 -84 52v16q115 284 300 284h28q73 0 188 -140q32 -56 56 -56h16q36 8 92 152q14 55 32 60h8q132 -17 132 -88z" />
    <glyph glyph-name="exclamdown" unicode="&#xa1;" horiz-adv-x="485" 
d="M239 900h20q60 0 76 -40v-4l8 -924q-4 -101 -4 -232q-12 -36 -56 -36h-68q-38 0 -56 32l-8 1128q-4 16 -4 28q0 48 92 48zM223 1316h36q68 -8 68 -52v-96q0 -76 -64 -76q-124 0 -124 80q-4 12 -4 48q0 96 88 96z" />
    <glyph glyph-name="cent" unicode="&#xa2;" horiz-adv-x="879" 
d="M251 808v-12q0 -116 4 -192q-8 -283 -16 -452q0 -56 92 -80h16v4q20 102 28 980q-70 0 -112 -44q-12 -70 -12 -204zM551 1320v-4q-12 -63 -12 -76v-28h104q81 0 108 -100q12 -44 20 -256q0 -60 -112 -60q-40 0 -40 72v12q0 71 -8 176h-96q-16 -194 -16 -432v-224
q0 -127 -4 -340l128 -8q16 162 16 216l24 20q108 0 108 -88v-4q0 -244 -88 -288q-3 0 -24 -4q-33 0 -172 8q0 -144 -96 -144h-20q-40 0 -44 48q0 32 12 108h-4q-106 0 -196 76q-28 34 -30 66t-10 542q0 436 68 536q24 39 228 64q15 172 64 172q92 -7 92 -60z" />
    <glyph glyph-name="sterling" unicode="&#xa3;" horiz-adv-x="922" 
d="M512 1577q216 0 288 -168q20 -46 20 -128v-4q0 -280 -96 -280h-24q-80 0 -80 44q8 47 24 236q-12 124 -92 124h-68q-95 0 -108 -148v-32q0 -66 40 -400v-52h12q73 0 204 -4q48 -13 48 -48v-20q0 -92 -24 -92q-34 0 -236 -8q0 -88 -116 -412q-7 0 -12 -28h444q52 0 52 -44
q-10 -128 -64 -128h-496q-77 0 -104 56q-12 34 -12 48v4q0 90 92 308q28 124 28 180h-160q-10 0 -16 32v20q6 108 44 108q37 8 152 16q-60 401 -60 492q0 243 212 312q68 16 108 16z" />
    <glyph glyph-name="currency" unicode="&#xa4;" horiz-adv-x="1191" 
d="M412 284v-8q0 -160 164 -160h4q104 0 142 154t38 682q0 140 -104 184q-7 4 -16 4h-4q-151 0 -188 -140q-36 -228 -36 -716zM624 1316h48q119 0 208 -128l8 -4q123 108 144 108h4q46 0 68 -120v-12l-164 -148q8 -67 8 -112q0 -436 -56 -676q47 -43 148 -120q48 -25 48 -60
v-12q0 -88 -68 -120q-73 0 -204 136q-96 -92 -128 -92q-63 -16 -96 -16h-56q-154 0 -212 92q-15 40 -20 40q-127 -128 -176 -128h-4q-51 0 -72 104q0 52 112 136q0 3 64 64v68q0 548 60 720q-130 131 -144 156q44 116 100 116q6 0 124 -104q67 112 256 112z" />
    <glyph glyph-name="yen" unicode="&#xa5;" horiz-adv-x="888" 
d="M194 1581q40 0 68 -104q24 -39 80 -211t56 -197q22 34 168 324q92 164 148 164h16q48 -8 48 -60v-4q0 -24 -80 -148q-107 -183 -220 -436q4 -64 12 -124h64q23 0 64 4q64 0 80 -96v-12q0 -72 -104 -72h-96v-4q4 -117 4 -136q86 8 132 8q71 0 80 -96v-16q0 -68 -128 -68
h-80v-136q0 -180 -92 -180q-76 4 -76 20q0 28 8 292h-120q-96 0 -96 104q0 72 100 72h112v4q-4 109 -4 132h-4q-80 -4 -108 -4q-112 0 -112 104v4q0 72 104 72h112q0 109 -88 340q-124 352 -124 380q29 80 76 80z" />
    <glyph glyph-name="brokenbar" unicode="&#xa6;" horiz-adv-x="469" 
d="M223 631h12q96 0 96 -52q-16 -149 -16 -288v-224q0 -56 -92 -56h-16q-62 0 -72 88v292q0 240 88 240zM274 1419q56 0 57 -40v-8q-24 -161 -24 -267t20 -273q0 -48 -112 -48h-16q-68 0 -68 140q-8 120 -8 204q0 221 56 280q39 12 95 12z" />
    <glyph glyph-name="section" unicode="&#xa7;" horiz-adv-x="1040" 
d="M268 647q0 -144 156 -144q96 -20 264 -36q44 58 44 140v16q0 129 -388 176q-76 -23 -76 -112v-40zM608 1543h24q193 0 264 -156q16 -64 20 -132q-4 -163 -72 -180h-36q-84 0 -84 24v192q0 63 -108 72l-28 4q-187 0 -236 -92q-36 -84 -36 -192v-12q0 -101 164 -120
q249 -58 332 -112q104 -108 104 -208q0 -165 -72 -252v-4q44 -64 44 -148v-32q0 -349 -156 -420q-60 -28 -128 -28h-40q-436 0 -436 336v44q0 68 88 68h12q76 0 76 -32q-4 -50 -4 -56q0 -142 88 -164q67 -16 132 -16h84q77 0 92 152q8 95 8 144q-18 96 -136 96
q-307 0 -420 108q-68 106 -68 216v52q0 139 100 212q-52 63 -52 160v52q0 189 108 308q71 73 140 84q129 32 232 32z" />
    <glyph glyph-name="dieresis" unicode="&#xa8;" horiz-adv-x="700" 
d="M500 1884h24q67 0 80 -44l4 -40q0 -160 -24 -160q-20 -16 -52 -16q-104 0 -104 60v128q9 72 72 72zM208 1888q41 0 56 -60q0 -34 -4 -156q0 -30 -88 -36h-16q-76 0 -76 44v144q0 57 80 64h48z" />
    <glyph glyph-name="copyright" unicode="&#xa9;" horiz-adv-x="1257" 
d="M1062 862v53q0 396 -91 483q-133 80 -376 80q-209 0 -284 -152q-48 -143 -73 -516v-20q0 -385 91 -640q36 -62 90 -87q55 -25 219 -25t291 76q41 27 76 176q57 305 57 572zM609 -126h-64q-290 0 -384 261q-87 240 -87 652q1 631 213 759q118 100 376 100h68
q299 0 428 -213q63 -198 63 -436v-280q-1 -506 -169 -727q-103 -116 -444 -116zM686 1117q-94 0 -124 -151q-20 -68 -20 -140q6 -371 46 -417t80 -46q8 0 15 1q47 131 56 149t37 19q92 -4 92 -51v-3q-58 -282 -170 -282q-18 -1 -34 -1q-181 0 -228 141q-62 191 -62 468
q10 320 102 400q76 91 213 91t171 -75q38 -71 38 -152q0 -18 -2 -36q0 -68 -82 -68q-71 6 -72 120q-4 32 -44 32q-6 1 -12 1z" />
    <glyph glyph-name="ordfeminine" unicode="&#xaa;" horiz-adv-x="975" 
d="M576 1157h68q12 114 12 164q0 100 -76 112h-20q-152 0 -188 -76q-12 -17 -36 -208q84 8 240 8zM524 1609h48q264 0 264 -320v-84q0 -179 -68 -612l-24 -16h-44q-100 7 -100 48q16 284 32 356h-4q-40 0 -312 -4q-4 -74 -4 -108v-192q0 -60 -92 -60h-4q-88 0 -88 64l-8 64
q0 646 156 788q123 76 248 76z" />
    <glyph glyph-name="guillemotleft" unicode="&#xab;" horiz-adv-x="1109" 
d="M1022 931v-8q0 -32 -208 -300l-76 -108q34 -62 124 -172q84 -90 84 -108q0 -69 -72 -128l-16 -4q-35 13 -188 192q-126 156 -128 212q11 122 352 504h12q116 -31 116 -80zM454 1019q33 0 88 -48q16 -24 16 -36v-20q0 -20 -136 -176q-142 -172 -152 -216
q218 -267 224 -288v-16q0 -51 -96 -104h-24q-36 0 -96 80q-117 115 -168 236q-28 64 -28 84v12q0 131 352 484q13 8 20 8z" />
    <glyph glyph-name="logicalnot" unicode="&#xac;" horiz-adv-x="992" 
d="M814 778q61 0 68 -84q-36 -288 -60 -288q-26 -8 -36 -8h-60q-58 0 -68 32l28 172q-94 -4 -140 -4h-112q-307 0 -352 56q-8 22 -6 85t18 63l500 -32q143 8 220 8z" />
    <glyph glyph-name="registered" unicode="&#xae;" horiz-adv-x="1388" 
d="M635 890v-44h32q104 0 124 76q24 38 24 76q0 132 -168 132q-12 -88 -12 -240zM579 1270h12q278 0 328 -132q24 -51 24 -124v-28q0 -92 -72 -188q-43 -40 -76 -48q93 -246 136 -428q-9 -84 -84 -84q-49 0 -72 124q-28 77 -112 340h-44v-4q-12 -219 -12 -408v-32
q0 -40 -64 -40h-20q-64 0 -64 80q0 298 48 960q19 12 72 12zM287 638v-44q0 -404 92 -492q133 -80 376 -80q209 0 284 152q48 143 72 516v20q0 385 -92 640q-36 62 -90 87q-55 25 -219 25t-291 -76q-41 -27 -76 -176q-56 -305 -56 -572zM739 1626h64q290 0 384 -260
q88 -240 88 -652q0 -631 -212 -760q-118 -100 -376 -100h-68q-299 0 -428 212q-64 201 -64 444v272q0 506 168 728q103 116 444 116z" />
    <glyph glyph-name="macron" unicode="&#xaf;" horiz-adv-x="632" 
d="M413 1314h92q32 -16 32 -90t-60 -74q-131 0 -352 -40h-8q-33 0 -48 80v12q0 80 60 80q136 32 284 32z" />
    <glyph glyph-name="degree" unicode="&#xb0;" horiz-adv-x="643" 
d="M239 1248q0 -88 64 -88h20q96 0 96 130t-84 130q-96 0 -96 -108v-64zM543 1348v-40q-1 -198 -75 -253t-157 -55q-160 0 -204 236q-8 39 -8 80q0 159 120 232q40 8 72 8h8l24 16q148 0 200 -112q20 -58 20 -112z" />
    <glyph glyph-name="plusminus" unicode="&#xb1;" horiz-adv-x="893" 
d="M771 280q0 -44 -96 -44q-321 -20 -536 -20q-32 0 -32 108q0 60 88 60q13 4 528 28q38 0 48 -88v-44zM427 1252h40q52 0 52 -52q4 -204 4 -236q256 -9 256 -24q16 -17 16 -64v-52q0 -31 -20 -40h-252v-152q0 -80 -52 -80h-68q-64 4 -64 32q0 37 -4 196q-224 0 -224 24
q-8 30 -8 56v32q0 64 92 64q37 0 140 8q4 192 4 240t88 48z" />
    <glyph glyph-name="twosuperior" unicode="&#xb2;" horiz-adv-x="816" 
d="M662 1387v-44q0 -264 -260 -364q-92 -66 -92 -168v-56q184 28 304 28h28q56 0 56 -88v-8q0 -80 -108 -80q-63 0 -304 -36q-127 0 -160 128q-8 32 -8 68q0 307 296 424q64 56 64 164q0 67 -96 84q-57 0 -88 -80q-12 -88 -72 -88q0 -4 -24 -4h-32q-68 8 -68 52v40
q0 146 124 208q85 36 184 36q256 -33 256 -216z" />
    <glyph glyph-name="threesuperior" unicode="&#xb3;" horiz-adv-x="701" 
d="M297 1631h50q223 0 223 -286q0 -101 -63 -184q92 -92 92 -185q0 -275 -193 -345q-64 -29 -117 -29h-51q-143 0 -143 164v67q9 67 51 67h25q80 0 80 -46q4 -1 4 -42v-38q151 36 151 105q21 38 21 63v9q0 76 -59 105q-109 26 -109 75v30q0 40 72 71q42 12 42 34
q12 59 12 84v4q0 86 -63 101h-12q-63 0 -63 -34q-36 -80 -89 -80h-25q-67 9 -67 67q0 223 231 223z" />
    <glyph glyph-name="acute" unicode="&#xb4;" horiz-adv-x="559" 
d="M423 2044q43 0 64 -92v-24q0 -51 -156 -116q-160 -92 -192 -92h-12q-61 0 -76 84v28q0 41 120 88q175 101 240 124h12z" />
    <glyph glyph-name="mu" unicode="&#xb5;" horiz-adv-x="919" 
d="M659 1163h24q48 0 48 -128q20 -419 20 -580v-120q0 -118 28 -276q0 -74 -116 -84q-72 9 -72 68q-4 0 -4 8q-93 -92 -176 -92h-12q-16 0 -76 24v-4q-4 -22 -4 -36v-112q0 -151 44 -388q0 -52 -96 -52h-36q-63 0 -80 188q-20 0 -20 1188v164q0 192 64 192h68q52 0 52 -44
q0 -182 4 -440q-4 -154 -4 -240q0 -138 72 -204q2 0 40 -12q66 0 124 108q28 90 28 268v4q-16 403 -16 552q14 48 96 48z" />
    <glyph glyph-name="paragraph" unicode="&#xb6;" horiz-adv-x="1052" 
d="M482 1577q130 0 170 -60q8 -30 8 -36q-40 -1113 -40 -1225t24 -417q-15 -13 -42 -13t-50 4q-70 10 -83 116q-25 144 -25 340t4 359q4 7 4 16h-36q-246 0 -296 148q-32 89 -32 200v80q0 317 180 436q84 52 214 52zM816 1593q91 0 108 -60q0 -149 -36 -1196q0 -297 16 -566
q0 -41 -58 -43t-70 39q-40 108 -40 562v132q0 454 40 1096q19 36 40 36z" />
    <glyph glyph-name="periodcentered" unicode="&#xb7;" horiz-adv-x="643" 
d="M236 762h58q66 -34 66 -93v-53q0 -58 -72 -99h-36q-101 17 -101 94q12 151 85 151z" />
    <glyph glyph-name="periodcentered" unicode="&#x2219;" horiz-adv-x="643" 
d="M236 762h58q66 -34 66 -93v-53q0 -58 -72 -99h-36q-101 17 -101 94q12 151 85 151z" />
    <glyph glyph-name="cedilla" unicode="&#xb8;" horiz-adv-x="783" 
d="M701 -220q0 -136 -136 -164h-44q-140 0 -140 96v4q9 24 27 24t105 -20q68 8 68 52q-13 48 -48 48q-93 -4 -96 -4q-44 9 -44 36q28 137 80 220q100 -12 116 -20l-52 -124q164 -27 164 -148z" />
    <glyph glyph-name="onesuperior" unicode="&#xb9;" horiz-adv-x="587" 
d="M449 678q0 -34 -68 -40q-116 4 -116 48q4 177 4 276v84q0 93 12 240v4h-4l-116 -84h-8q-48 0 -68 100v12q0 92 156 176q44 31 128 76q116 -41 116 -132q-36 -279 -36 -760z" />
    <glyph glyph-name="ordmasculine" unicode="&#xba;" horiz-adv-x="697" 
d="M231 1186q0 -18 4 -120q-4 -50 -4 -56q0 -112 60 -148q26 -8 36 -8h16q72 16 72 48q24 66 24 164v68q0 252 -56 252l-24 8q-91 0 -128 -188v-20zM91 990q-6 0 -8 192q0 278 136 344q42 42 144 68q153 0 220 -188q0 -37 12 -392q0 -256 -140 -320q-34 -12 -80 -16
q-102 0 -216 84q-68 79 -68 228z" />
    <glyph glyph-name="guillemotright" unicode="&#xbb;" horiz-adv-x="1093" 
d="M966 625v-36q0 -110 -356 -472h-16q-53 0 -104 76v16q0 27 60 92q228 272 228 312q-224 276 -224 288v12q0 43 84 100l32 8q39 0 100 -80q129 -131 168 -232q28 -68 28 -84zM566 628q0 -91 -284 -431q-25 -35 -72 -76q-124 29 -124 92q0 36 192 272q38 51 92 144
q-74 106 -204 256l-4 20q0 59 76 124h24q304 -310 304 -401z" />
    <glyph glyph-name="onequarter" unicode="&#xbc;" horiz-adv-x="1301" 
d="M899 967h20q64 -5 64 -28v-8q0 -15 -176 -488q108 7 108 24q0 78 60 116h44q40 0 48 -32l-16 -92q74 4 108 4q12 -19 12 -60v-24q0 -68 -60 -68q-76 -3 -76 -8q-51 -316 -64 -316q-36 -20 -80 -20q-72 0 -72 48q0 6 56 276l-188 -12q-64 16 -64 100q156 435 240 580
q26 8 36 8zM483 1539q4 0 4 -28v-4q-30 -520 -56 -520q-31 -28 -60 -28h-48q-26 0 -36 24l24 388h-4q-135 -104 -152 -104q-45 0 -68 108q0 25 108 104q60 64 184 148q104 -18 104 -88zM915 1647h12q63 -13 112 -68v-28q0 -21 -64 -104q-186 -326 -392 -872
q-136 -327 -260 -580q-38 -40 -72 -40h-4q-91 0 -136 56v20q0 23 152 308q128 253 420 976q168 332 232 332z" />
    <glyph glyph-name="onehalf" unicode="&#xbd;" horiz-adv-x="1419" 
d="M1009 951q152 0 216 -136q16 -47 16 -104q0 -233 -172 -312q-112 -56 -112 -152v-44q158 28 236 28h20q56 0 56 -92v-4q-25 -76 -88 -76q-32 0 -276 -32q-98 0 -116 140v28q0 260 232 360q56 49 56 148q0 60 -80 76q-61 0 -84 -80q0 -68 -72 -68h-20q-32 0 -48 28v64
q0 168 160 220q56 8 76 8zM409 1639q72 0 72 -88q-24 -246 -40 -548q-26 -36 -76 -36h-52q-31 0 -36 16l20 396h-4l-144 -104q-44 0 -72 100v20q262 244 316 244h16zM925 1647h16q108 -41 108 -81t-80 -139q-192 -360 -340 -752q-139 -357 -300 -684q-36 -36 -72 -36h-4
q-136 17 -136 68v4q0 22 145 302t383 878q198 440 280 440z" />
    <glyph glyph-name="threequarters" unicode="&#xbe;" horiz-adv-x="1484" 
d="M1092 963h32q52 0 52 -36q0 -15 -176 -488l108 12q0 110 72 128h40q29 0 40 -32q0 -10 -16 -92q85 8 96 8q24 0 24 -60v-28q0 -68 -60 -68q-76 -3 -76 -8q-48 -295 -60 -312q-32 -24 -94 -24t-62 48q0 6 56 276l-180 -12q-65 0 -72 100q161 431 240 580q26 8 36 8z
M356 1635q148 0 192 -124q20 -39 20 -145t-56 -175q84 -66 84 -152v-48q0 -234 -220 -328q-30 -8 -56 -8h-72q-132 0 -132 160v52q0 72 52 72h20q68 0 80 -36v-28q0 -20 4 -60h4q96 0 144 80q12 50 12 88v24q0 57 -44 76q-100 36 -100 56q-4 7 -8 40q0 54 80 80q48 44 48 80
v28q0 100 -64 100h-20q-52 0 -52 -32q-40 -76 -92 -76h-24q-68 8 -68 64q0 182 224 212h44zM1100 1647h16q108 -39 108 -92q0 -17 -88 -148q-142 -249 -296 -644q-72 -183 -204 -489t-160 -307q-27 -12 -44 -12h-4q-132 20 -132 56q-4 0 -4 12v4q0 24 138 285t330 751
q244 584 340 584z" />
    <glyph glyph-name="questiondown" unicode="&#xbf;" horiz-adv-x="807" 
d="M438 959h48q56 0 56 -52q0 -406 -212 -624q-64 -101 -64 -188q0 -204 100 -204h108q39 0 44 76q-8 182 -8 232q-4 8 -4 12q20 28 94 28t94 -44q0 -31 8 -212q-24 -195 -80 -232q-23 -40 -140 -40h-68q-227 0 -296 164q-40 90 -40 224q0 181 192 404q88 159 88 436
q27 20 80 20zM478 1391q72 0 72 -48v-128q-7 -60 -48 -60h-76q-64 0 -64 40v144q0 44 84 52h32z" />
    <glyph glyph-name="Agrave" unicode="&#xc0;" horiz-adv-x="1056" 
d="M399 2050h12q276 -162 352 -188l16 -20v-12q-2 -48 -23 -88t-42 -39q-5 0 -11 3q-58 16 -284 136q-104 40 -104 88q42 120 84 120zM334 728q207 0 380 20q-8 156 -8 326t8 341q-162 -1 -300 -75q-64 -65 -64 -292q-8 -67 -24 -320h8zM755 1588q119 0 119 -116
q-6 -280 -6 -372q10 -604 58 -1064q0 -44 -100 -44q-72 4 -76 24l-32 564q-155 0 -400 -16q-12 -177 -16 -312q8 -212 8 -256q-26 -28 -90 -28t-78 16q-4 166 -4 248v16q8 227 40 676q0 264 44 395t95 170t229 75q90 24 209 24z" />
    <glyph glyph-name="Aacute" unicode="&#xc1;" horiz-adv-x="1064" 
d="M705 2040q43 0 64 -92v-24q0 -51 -156 -116q-160 -92 -192 -92h-12q-61 0 -76 84v28q0 41 120 88q175 101 240 124h12zM334 728q207 0 380 20q-8 156 -8 326t8 341q-162 -1 -300 -75q-64 -65 -64 -292q-8 -67 -24 -320h8zM755 1588q119 0 119 -116q-6 -280 -6 -372
q10 -604 58 -1064q0 -44 -100 -44q-72 4 -76 24l-32 564q-155 0 -400 -16q-12 -177 -16 -312q8 -212 8 -256q-26 -28 -90 -28t-78 16q-4 166 -4 248v16q8 227 40 676q0 264 44 395t95 170t229 75q90 24 209 24z" />
    <glyph glyph-name="Acircumflex" unicode="&#xc2;" horiz-adv-x="1060" 
d="M569 2084h8q41 0 124 -104q136 -137 136 -160v-12q0 -35 -64 -76h-20q-30 0 -176 164v4q-148 -180 -160 -184t-24 -4q-84 18 -84 68v16q192 264 212 280q28 8 48 8zM334 728q207 0 380 20q-8 156 -8 326t8 341q-162 -1 -300 -75q-64 -65 -64 -292q-8 -67 -24 -320h8z
M755 1588q119 0 119 -116q-6 -280 -6 -372q10 -604 58 -1064q0 -44 -100 -44q-72 4 -76 24l-32 564q-155 0 -400 -16q-12 -177 -16 -312q8 -212 8 -256q-26 -28 -90 -28t-78 16q-4 166 -4 248v16q8 227 40 676q0 264 44 395t95 170t229 75q90 24 209 24z" />
    <glyph glyph-name="Atilde" unicode="&#xc3;" horiz-adv-x="1060" 
d="M807 2083q9 0 20 -1q69 -11 69 -63q0 -22 -12 -51q-81 -219 -196 -228h-36q-95 0 -216 144v4h-24q-54 0 -92 -168q-10 -12 -30 -12t-51 17q-49 26 -49 69q0 8 2 18q14 115 90 190q57 52 116 52h20q101 0 202 -124q13 -8 32 -8h5q46 0 93 128q9 33 57 33zM334 728
q207 0 380 20q-8 156 -8 326t8 341q-162 -1 -300 -75q-64 -65 -64 -292q-8 -67 -24 -320h8zM755 1588q119 0 119 -116q-6 -280 -6 -372q10 -604 58 -1064q0 -44 -100 -44q-72 4 -76 24l-32 564q-155 0 -400 -16q-12 -177 -16 -312q8 -212 8 -256q-26 -28 -90 -28t-78 16
q-4 166 -4 248v16q8 227 40 676q0 264 44 395t95 170t229 75q90 24 209 24z" />
    <glyph glyph-name="Adieresis" unicode="&#xc4;" horiz-adv-x="1073" 
d="M737 1990h24q67 0 80 -44l4 -40q0 -160 -24 -160q-20 -16 -52 -16q-104 0 -104 60v128q9 72 72 72zM445 1994q41 0 56 -60q0 -34 -4 -156q0 -30 -88 -36h-16q-76 0 -76 44v144q0 57 80 64h48zM334 728q207 0 380 20q-8 156 -8 326t8 341q-162 -1 -300 -75
q-64 -65 -64 -292q-8 -67 -24 -320h8zM755 1588q119 0 119 -116q-6 -280 -6 -372q10 -604 58 -1064q0 -44 -100 -44q-72 4 -76 24l-32 564q-155 0 -400 -16q-12 -177 -16 -312q8 -212 8 -256q-26 -28 -90 -28t-78 16q-4 166 -4 248v16q8 227 40 676q0 264 44 395t95 170
t229 75q90 24 209 24z" />
    <glyph glyph-name="Aring" unicode="&#xc5;" horiz-adv-x="1073" 
d="M474 1889q0 -68 56 -68h28q61 0 76 80q0 82 -64 96h-4q-88 0 -88 -68q-4 -14 -4 -40zM770 1941v-16q0 -162 -76 -204q-81 -40 -156 -40q-139 0 -196 144q-16 71 -16 96v4q0 137 136 184q76 3 88 16q220 0 220 -184zM334 728q207 0 380 20q-8 156 -8 326t8 341
q-162 -1 -300 -75q-64 -65 -64 -292q-8 -67 -24 -320h8zM755 1588q119 0 119 -116q-6 -280 -6 -372q10 -604 58 -1064q0 -44 -100 -44q-72 4 -76 24l-32 564q-155 0 -400 -16q-12 -177 -16 -312q8 -212 8 -256q-26 -28 -90 -28t-78 16q-4 166 -4 248v16q8 227 40 676
q0 264 44 395t95 170t229 75q90 24 209 24z" />
    <glyph glyph-name="AE" unicode="&#xc6;" horiz-adv-x="1313" 
d="M274 728q207 0 380 20v516q0 59 4 160q-165 0 -304 -84q-64 -65 -64 -292q-8 -67 -24 -320h8zM1214 1482q0 -94 -44 -94h-56q-139 0 -284 -8v-260q0 -73 4 -204q4 -8 4 -12q279 8 296 8q28 -9 28 -48v-68q0 -48 -54 -50l-270 -10v-16q0 -276 20 -552q157 12 328 12
q28 0 32 -60v-40q0 -60 -64 -60l-388 -28q-72 4 -76 24l-32 564q-155 0 -400 -16q-12 -177 -16 -312q8 -212 8 -256q-26 -28 -90 -28t-78 16q-4 166 -4 248v16q8 227 40 676q0 221 68 476q13 63 48 84q60 41 248 80q0 28 720 28q12 -16 12 -110z" />
    <glyph glyph-name="Ccedilla" unicode="&#xc7;" horiz-adv-x="1028" 
d="M647 1576q193 0 244 -128q12 -40 16 -84q0 -196 -80 -196q-12 -4 -48 -4h-40q-10 0 -12 16q0 46 8 192q0 42 -104 48q-242 0 -292 -96q-56 -160 -56 -404v-300q0 -275 84 -348q167 -72 292 -72q68 8 68 52v60q0 33 -12 216q63 40 128 40q40 0 40 -72l16 -216
q0 -152 -116 -208q-48 -20 -108 -20h-116l-28 4q-32 -68 -32 -88q160 -3 160 -141v-3q0 -114 -100 -156q-23 -10 -45 -10t-39 15q-43 49 -43 70t31 21h8q68 6 68 56q-18 44 -52 44q-89 -4 -96 -4q-40 6 -40 41t60 183q-208 81 -208 128q-92 128 -92 568q0 580 140 700
q147 96 396 96z" />
    <glyph glyph-name="Egrave" unicode="&#xc8;" horiz-adv-x="791" 
d="M211 2041h12q276 -162 352 -188l16 -20v-12q-2 -47 -23 -87t-42 -40q-5 0 -11 3q-58 16 -284 136q-104 40 -104 88q42 120 84 120zM655 1548q16 0 16 -60v-48q0 -48 -44 -48h-56q-137 0 -288 -8q0 -30 24 -476l280 8q32 0 32 -82t-48 -82l-260 -12q8 -411 16 -568
q106 12 304 24q32 0 40 -56v-48q0 -72 -76 -72q-274 -16 -428 -16q-12 24 -12 76v544q0 397 -48 884q9 40 80 40h468z" />
    <glyph glyph-name="Eacute" unicode="&#xc9;" horiz-adv-x="799" 
d="M517 2019q43 0 64 -92v-24q0 -51 -156 -116q-160 -92 -192 -92h-12q-61 0 -76 84v28q0 41 120 88q175 101 240 124h12zM655 1548q16 0 16 -60v-48q0 -48 -44 -48h-56q-137 0 -288 -8q0 -30 24 -476l280 8q32 0 32 -82t-48 -82l-260 -12q8 -411 16 -568q106 12 304 24
q32 0 40 -56v-48q0 -72 -76 -72q-274 -16 -428 -16q-12 24 -12 76v544q0 397 -48 884q9 40 80 40h468z" />
    <glyph glyph-name="Ecircumflex" unicode="&#xca;" horiz-adv-x="803" 
d="M369 2057h8q41 0 124 -104q136 -137 136 -160v-12q0 -35 -64 -76h-20q-30 0 -176 164v4q-148 -180 -160 -184t-24 -4q-84 18 -84 68v16q192 264 212 280q28 8 48 8zM655 1548q16 0 16 -60v-48q0 -48 -44 -48h-56q-137 0 -288 -8q0 -30 24 -476l280 8q32 0 32 -82t-48 -82
l-260 -12q8 -411 16 -568q106 12 304 24q32 0 40 -56v-48q0 -72 -76 -72q-274 -16 -428 -16q-12 24 -12 76v544q0 397 -48 884q9 40 80 40h468z" />
    <glyph glyph-name="Edieresis" unicode="&#xcb;" horiz-adv-x="799" 
d="M553 1986h24q67 0 80 -44l4 -40q0 -160 -24 -160q-20 -16 -52 -16q-104 0 -104 60v128q9 72 72 72zM261 1990q41 0 56 -60q0 -34 -4 -156q0 -30 -88 -36h-16q-76 0 -76 44v144q0 57 80 64h48zM655 1548q16 0 16 -60v-48q0 -48 -44 -48h-56q-137 0 -288 -8q0 -30 24 -476
l280 8q32 0 32 -82t-48 -82l-260 -12q8 -411 16 -568q106 12 304 24q32 0 40 -56v-48q0 -72 -76 -72q-274 -16 -428 -16q-12 24 -12 76v544q0 397 -48 884q9 40 80 40h468z" />
    <glyph glyph-name="Igrave" unicode="&#xcc;" horiz-adv-x="599" 
d="M122 2027h12q276 -162 352 -188l16 -20v-12q-2 -47 -23 -87t-42 -40q-5 0 -11 3q-58 16 -284 136q-104 40 -104 88q42 120 84 120zM297 0h-8q-43 0 -64 32q-36 858 -52 1480q0 48 64 48l56 4q43 0 52 -128q16 -759 44 -1376q-12 -60 -92 -60z" />
    <glyph glyph-name="Iacute" unicode="&#xcd;" horiz-adv-x="575" 
d="M423 2044q43 0 64 -92v-24q0 -51 -156 -116q-160 -92 -192 -92h-12q-61 0 -76 84v28q0 41 120 88q175 101 240 124h12zM297 0h-8q-43 0 -64 32q-36 858 -52 1480q0 48 64 48l56 4q43 0 52 -128q16 -759 44 -1376q-12 -60 -92 -60z" />
    <glyph glyph-name="Icircumflex" unicode="&#xce;" horiz-adv-x="526" 
d="M263 2016h8q41 0 124 -104q136 -137 136 -160v-12q0 -35 -64 -76h-20q-30 0 -176 164v4q-148 -180 -160 -184t-24 -4q-84 18 -84 68v16q192 264 212 280q28 8 48 8zM297 0h-8q-43 0 -64 32q-36 858 -52 1480q0 48 64 48l56 4q43 0 52 -128q16 -759 44 -1376
q-12 -60 -92 -60z" />
    <glyph glyph-name="Idieresis" unicode="&#xcf;" horiz-adv-x="608" 
d="M431 1988h24q67 0 80 -44l4 -40q0 -160 -24 -160q-20 -16 -52 -16q-104 0 -104 60v128q9 72 72 72zM139 1992q41 0 56 -60q0 -34 -4 -156q0 -30 -88 -36h-16q-76 0 -76 44v144q0 57 80 64h48zM307 0h-8q-43 0 -64 32q-36 858 -52 1480q0 48 64 48l56 4q43 0 52 -128
q16 -759 44 -1376q-12 -60 -92 -60z" />
    <glyph glyph-name="Eth" unicode="&#xd0;" horiz-adv-x="975" 
d="M378 1273v-124q0 -173 8 -356q21 0 92 8q64 -13 64 -112q0 -68 -84 -68h-72q4 -217 16 -468q148 33 188 92q100 115 100 332q-23 768 -60 768q-37 60 -120 60h-16q-62 0 -112 -24q-4 -74 -4 -108zM462 1569h56q212 0 284 -212q31 0 52 -800v-40q0 -401 -372 -528
q-116 -20 -184 -20t-68 56q-7 0 -8 60v116q0 199 -8 408l-8 4h-48q-96 0 -96 112q0 68 92 68h56v700q0 76 252 76z" />
    <glyph glyph-name="Ntilde" unicode="&#xd1;" horiz-adv-x="999" 
d="M742 2087q9 0 20 -1q69 -11 69 -63q0 -22 -12 -51q-81 -219 -196 -228h-36q-95 0 -216 144v4h-24q-54 0 -92 -168q-10 -12 -30 -12t-51 17q-49 26 -49 69q0 8 2 18q14 115 90 190q57 52 116 52h20q101 0 202 -124q13 -8 32 -8h5q46 0 93 128q9 33 57 33zM660 1341v219
q0 33 41 33q118 0 118 -81q0 -673 -77 -1561q-14 -8 -21 -8q-84 0 -109 57q-163 668 -325 1085h-5q21 -403 21 -605t-8 -517q-22 -24 -53 -24q-106 18 -106 106q-4 619 -4 906v126q0 146 -4 451q-4 8 -4 12q0 45 98 57q63 0 101 -142q171 -384 317 -923h4q16 349 16 809z
" />
    <glyph glyph-name="Ograve" unicode="&#xd2;" horiz-adv-x="1028" 
d="M358 2057h12q276 -162 352 -188l16 -20v-12q-2 -47 -23 -87t-42 -40q-5 0 -11 3q-58 16 -284 136q-104 40 -104 88q42 120 84 120zM272 675q0 -422 128 -524q91 -32 152 -32q141 0 184 652q4 97 4 148q0 346 -152 512q-13 8 -24 8h-12q-77 0 -208 -100q-41 -78 -68 -568
q-4 -12 -4 -96zM540 1607h36q250 0 328 -592q0 -58 4 -248q0 -381 -148 -684q-98 -132 -232 -132q-272 0 -372 272q-48 178 -48 432q0 629 136 828q211 124 296 124z" />
    <glyph glyph-name="Oacute" unicode="&#xd3;" horiz-adv-x="1044" 
d="M686 2042q43 0 64 -92v-24q0 -51 -156 -116q-160 -92 -192 -92h-12q-61 0 -76 84v28q0 41 120 88q175 101 240 124h12zM272 675q0 -422 128 -524q91 -32 152 -32q141 0 184 652q4 97 4 148q0 346 -152 512q-13 8 -24 8h-12q-77 0 -208 -100q-41 -78 -68 -568
q-4 -12 -4 -96zM540 1607h36q250 0 328 -592q0 -58 4 -248q0 -381 -148 -684q-98 -132 -232 -132q-272 0 -372 272q-48 178 -48 432q0 629 136 828q211 124 296 124z" />
    <glyph glyph-name="Ocircumflex" unicode="&#xd4;" horiz-adv-x="1036" 
d="M467 2065h8q41 0 124 -104q136 -137 136 -160v-12q0 -35 -64 -76h-20q-30 0 -176 164v4q-148 -180 -160 -184t-24 -4q-84 18 -84 68v16q192 264 212 280q28 8 48 8zM272 675q0 -422 128 -524q91 -32 152 -32q141 0 184 652q4 97 4 148q0 346 -152 512q-13 8 -24 8h-12
q-77 0 -208 -100q-41 -78 -68 -568q-4 -12 -4 -96zM540 1607h36q250 0 328 -592q0 -58 4 -248q0 -381 -148 -684q-98 -132 -232 -132q-272 0 -372 272q-48 178 -48 432q0 629 136 828q211 124 296 124z" />
    <glyph glyph-name="Otilde" unicode="&#xd5;" horiz-adv-x="1028" 
d="M782 2095q9 0 20 -1q69 -11 69 -63q0 -22 -12 -51q-81 -219 -196 -228h-36q-95 0 -216 144v4h-24q-54 0 -92 -168q-10 -12 -30 -12t-51 17q-49 26 -49 69q0 8 2 18q14 115 90 190q57 52 116 52h20q101 0 202 -124q13 -8 32 -8h5q46 0 93 128q9 33 57 33zM272 675
q0 -422 128 -524q91 -32 152 -32q141 0 184 652q4 97 4 148q0 346 -152 512q-13 8 -24 8h-12q-77 0 -208 -100q-41 -78 -68 -568q-4 -12 -4 -96zM540 1607h36q250 0 328 -592q0 -58 4 -248q0 -381 -148 -684q-98 -132 -232 -132q-272 0 -372 272q-48 178 -48 432
q0 629 136 828q211 124 296 124z" />
    <glyph glyph-name="Odieresis" unicode="&#xd6;" 
d="M684 2014h24q67 0 80 -44l4 -40q0 -160 -24 -160q-20 -16 -52 -16q-104 0 -104 60v128q9 72 72 72zM392 2018q41 0 56 -60q0 -34 -4 -156q0 -30 -88 -36h-16q-76 0 -76 44v144q0 57 80 64h48zM272 675q0 -422 128 -524q91 -32 152 -32q141 0 184 652q4 97 4 148
q0 346 -152 512q-13 8 -24 8h-12q-77 0 -208 -100q-41 -78 -68 -568q-4 -12 -4 -96zM540 1607h36q250 0 328 -592q0 -58 4 -248q0 -381 -148 -684q-98 -132 -232 -132q-272 0 -372 272q-48 178 -48 432q0 629 136 828q211 124 296 124z" />
    <glyph glyph-name="multiply" unicode="&#xd7;" horiz-adv-x="958" 
d="M770 1077v-12q0 -19 -208 -316l-4 -8q264 -255 264 -272v-8q0 -26 -60 -88q-21 -20 -36 -20h-12q-61 18 -280 236q-192 -256 -212 -272h-4q-50 0 -124 96v8q0 20 110 166t110 150q-224 254 -224 283t100 85q6 4 24 4q9 0 216 -228q188 253 220 276h16q104 -38 104 -80z
" />
    <glyph glyph-name="Oslash" unicode="&#xd8;" horiz-adv-x="1113" 
d="M792 949q3 0 8 116v4h-4q-83 -201 -216 -460q-180 -368 -216 -464h4q77 -32 136 -40q167 0 216 232q72 392 72 612zM272 509v-128h4q148 304 284 608l148 368q-66 76 -96 76h-68q-182 0 -236 -480q-36 -195 -36 -444zM916 1645h8q100 -20 100 -64q-32 -73 -112 -236
q52 -183 52 -332q0 -830 -224 -1000q-96 -76 -220 -76t-232 60q-65 -103 -116 -116q-93 24 -120 68v16q0 9 112 196q-52 120 -52 352v68q0 596 184 892q90 128 232 128h56q96 0 204 -76q80 120 128 120z" />
    <glyph glyph-name="Ugrave" unicode="&#xd9;" horiz-adv-x="1003" 
d="M297 2045h12q276 -162 352 -188l16 -20v-12q-2 -47 -23 -87t-42 -40q-5 0 -11 3q-58 16 -284 136q-104 40 -104 88q42 120 84 120zM742 1563h12q76 0 96 -136q12 -80 16 -352q0 -862 -148 -1072q0 -16 -84 -28h-72q-247 0 -368 212q-64 177 -64 456v52q0 45 16 584
q0 57 -4 264q15 12 36 12h44q92 0 92 -180v-224q-16 -292 -16 -444v-108q0 -350 120 -420q68 -28 124 -28q80 5 80 56q37 55 60 348q28 267 28 525t-32 467q17 16 64 16z" />
    <glyph glyph-name="Uacute" unicode="&#xda;" horiz-adv-x="995" 
d="M611 2053q43 0 64 -92v-24q0 -51 -156 -116q-160 -92 -192 -92h-12q-61 0 -76 84v28q0 41 120 88q175 101 240 124h12zM742 1563h12q76 0 96 -136q12 -80 16 -352q0 -862 -148 -1072q0 -16 -84 -28h-72q-247 0 -368 212q-64 177 -64 456v52q0 45 16 584q0 57 -4 264
q15 12 36 12h44q92 0 92 -180v-224q-16 -292 -16 -444v-108q0 -350 120 -420q68 -28 124 -28q80 5 80 56q37 55 60 348q28 267 28 525t-32 467q17 16 64 16z" />
    <glyph glyph-name="Ucircumflex" unicode="&#xdb;" horiz-adv-x="1003" 
d="M454 2045h8q41 0 124 -104q136 -137 136 -160v-12q0 -35 -64 -76h-20q-30 0 -176 164v4q-148 -180 -160 -184t-24 -4q-84 18 -84 68v16q192 264 212 280q28 8 48 8zM742 1563h12q76 0 96 -136q12 -80 16 -352q0 -862 -148 -1072q0 -16 -84 -28h-72q-247 0 -368 212
q-64 177 -64 456v52q0 45 16 584q0 57 -4 264q15 12 36 12h44q92 0 92 -180v-224q-16 -292 -16 -444v-108q0 -350 120 -420q68 -28 124 -28q80 5 80 56q37 55 60 348q28 267 28 525t-32 467q17 16 64 16z" />
    <glyph glyph-name="Udieresis" unicode="&#xdc;" horiz-adv-x="1007" 
d="M655 2018h24q67 0 80 -44l4 -40q0 -160 -24 -160q-20 -16 -52 -16q-104 0 -104 60v128q9 72 72 72zM363 2022q41 0 56 -60q0 -34 -4 -156q0 -30 -88 -36h-16q-76 0 -76 44v144q0 57 80 64h48zM742 1563h12q76 0 96 -136q12 -80 16 -352q0 -862 -148 -1072q0 -16 -84 -28
h-72q-247 0 -368 212q-64 177 -64 456v52q0 45 16 584q0 57 -4 264q15 12 36 12h44q92 0 92 -180v-224q-16 -292 -16 -444v-108q0 -350 120 -420q68 -28 124 -28q80 5 80 56q37 55 60 348q28 267 28 525t-32 467q17 16 64 16z" />
    <glyph glyph-name="Yacute" unicode="&#xdd;" horiz-adv-x="863" 
d="M584 2036q43 0 64 -92v-24q0 -51 -156 -116q-160 -92 -192 -92h-12q-61 0 -76 84v28q0 41 120 88q175 101 240 124h12zM694 1542q71 0 84 -100q-122 -179 -312 -568q16 -382 16 -684v-28q0 -192 -84 -192h-32q-60 0 -60 16q0 100 8 416q-4 93 -12 428q-156 450 -240 652
v20q0 49 88 56l24 4q77 -112 172 -376q28 -78 36 -116h4q123 272 236 432q24 40 72 40z" />
    <glyph glyph-name="Thorn" unicode="&#xde;" horiz-adv-x="783" 
d="M295 1068v-4q12 -154 16 -548h4q55 0 124 84q44 68 44 228v12q0 186 -132 220q-38 8 -56 8zM227 1508q52 0 52 -52l12 -200q229 0 324 -204q36 -96 36 -200q0 -415 -276 -508q-42 -12 -60 -12v-304q0 -56 -68 -64h-68q-52 0 -52 52v420q0 156 -28 1016q0 42 76 56h52z
" />
    <glyph glyph-name="germandbls" unicode="&#xdf;" horiz-adv-x="899" 
d="M464 570q-55 0 -55 91q0 16 2 34q10 55 74 81q84 59 84 168q0 157 -76 208q-65 12 -137 12t-71 -16q-12 -118 -12 -512t16 -972q0 -42 -60 -52h-84q-48 5 -48 40q-16 849 -16 1584q12 116 84 116q48 12 184 12h32q249 0 328 -148q60 -132 60 -240t-81 -255
q109 -96 119 -293q0 -253 -196 -368q-73 -28 -144 -28h-4q-41 0 -42 92v28q0 68 52 68q156 51 156 192q-19 158 -150 158h-15z" />
    <glyph glyph-name="agrave" unicode="&#xe0;" horiz-adv-x="905" 
d="M256 1792h12q276 -162 352 -188l16 -20v-12q-2 -48 -23 -88t-42 -39q-5 0 -11 3q-58 16 -284 136q-104 40 -104 88q42 120 84 120zM492 1174q-102 0 -204 -60q-28 -32 -28 -112q12 -286 12 -296l344 -16l8 248q0 232 -92 232q-21 4 -40 4zM548 1342h56q152 0 152 -160
q24 -160 24 -420q-17 -732 -28 -732q-29 -32 -80 -32h-52q-44 0 -44 36q8 115 24 488l-328 20q0 -82 4 -520q4 -35 4 -44q0 -40 -132 -40q-34 0 -44 56l-8 1120q0 78 100 148q173 80 352 80z" />
    <glyph glyph-name="aacute" unicode="&#xe1;" horiz-adv-x="913" 
d="M537 1771q43 0 64 -92v-24q0 -51 -156 -116q-160 -92 -192 -92h-12q-61 0 -76 84v28q0 41 120 88q175 101 240 124h12zM492 1174q-102 0 -204 -60q-28 -32 -28 -112q12 -286 12 -296l344 -16l8 248q0 232 -92 232q-21 4 -40 4zM548 1342h56q152 0 152 -160
q24 -160 24 -420q-17 -732 -28 -732q-29 -32 -80 -32h-52q-44 0 -44 36q8 115 24 488l-328 20q0 -82 4 -520q4 -35 4 -44q0 -40 -132 -40q-34 0 -44 56l-8 1120q0 78 100 148q173 80 352 80z" />
    <glyph glyph-name="acircumflex" unicode="&#xe2;" horiz-adv-x="909" 
d="M434 1845h8q41 0 124 -104q136 -137 136 -160v-12q0 -35 -64 -76h-20q-30 0 -176 164v4q-148 -180 -160 -184t-24 -4q-84 18 -84 68v16q192 264 212 280q28 8 48 8zM492 1174q-102 0 -204 -60q-28 -32 -28 -112q12 -286 12 -296l344 -16l8 248q0 232 -92 232q-21 4 -40 4
zM548 1342h56q152 0 152 -160q24 -160 24 -420q-17 -732 -28 -732q-29 -32 -80 -32h-52q-44 0 -44 36q8 115 24 488l-328 20q0 -82 4 -520q4 -35 4 -44q0 -40 -132 -40q-34 0 -44 56l-8 1120q0 78 100 148q173 80 352 80z" />
    <glyph glyph-name="atilde" unicode="&#xe3;" horiz-adv-x="913" 
d="M659 1774q9 0 18 -1q60 -10 60 -55q0 -19 -11 -44q-69 -189 -170 -197h-31q-82 0 -187 125v3h-21q-46 0 -80 -146q-9 -10 -26 -10t-52 19t-35 56q0 7 2 15q13 100 78 165q50 45 101 45h17q88 0 175 -108q12 -7 28 -7h4q41 0 81 111q8 29 49 29zM492 1174q-102 0 -204 -60
q-28 -32 -28 -112q12 -286 12 -296l344 -16l8 248q0 232 -92 232q-21 4 -40 4zM548 1342h56q152 0 152 -160q24 -160 24 -420q-17 -732 -28 -732q-29 -32 -80 -32h-52q-44 0 -44 36q8 115 24 488l-328 20q0 -82 4 -520q4 -35 4 -44q0 -40 -132 -40q-34 0 -44 56l-8 1120
q0 78 100 148q173 80 352 80z" />
    <glyph glyph-name="adieresis" unicode="&#xe4;" horiz-adv-x="913" 
d="M585 1741h24q67 0 80 -44l4 -40q0 -160 -24 -160q-20 -16 -52 -16q-104 0 -104 60v128q9 72 72 72zM293 1745q41 0 56 -60q0 -34 -4 -156q0 -30 -88 -36h-16q-76 0 -76 44v144q0 57 80 64h48zM492 1174q-102 0 -204 -60q-28 -32 -28 -112q12 -286 12 -296l344 -16l8 248
q0 232 -92 232q-21 4 -40 4zM548 1342h56q152 0 152 -160q24 -160 24 -420q-17 -732 -28 -732q-29 -32 -80 -32h-52q-44 0 -44 36q8 115 24 488l-328 20q0 -82 4 -520q4 -35 4 -44q0 -40 -132 -40q-34 0 -44 56l-8 1120q0 78 100 148q173 80 352 80z" />
    <glyph glyph-name="aring" unicode="&#xe5;" horiz-adv-x="913" 
d="M319 1652q0 -68 56 -68h28q61 0 76 80q0 82 -64 96h-4q-88 0 -88 -68q-4 -14 -4 -40zM615 1704v-16q0 -162 -76 -204q-81 -40 -156 -40q-139 0 -196 144q-16 71 -16 96v4q0 137 136 184q76 3 88 16q220 0 220 -184zM492 1174q-102 0 -204 -60q-28 -32 -28 -112
q12 -286 12 -296l344 -16l8 248q0 232 -92 232q-21 4 -40 4zM548 1342h56q152 0 152 -160q24 -160 24 -420q-17 -732 -28 -732q-29 -32 -80 -32h-52q-44 0 -44 36q8 115 24 488l-328 20q0 -82 4 -520q4 -35 4 -44q0 -40 -132 -40q-34 0 -44 56l-8 1120q0 78 100 148
q173 80 352 80z" />
    <glyph glyph-name="ae" unicode="&#xe6;" horiz-adv-x="1219" 
d="M260 1002q12 -286 12 -296l312 -12q12 195 12 472q-75 8 -108 8q-200 -29 -200 -68q-28 -10 -28 -104zM472 1334h148q440 0 440 -40q12 -2 12 -32v-48q0 -72 -64 -72h-60q-61 0 -188 4q-4 -222 -4 -336h248q60 0 60 -88v-24q0 -56 -68 -56l-248 -8l8 -468q260 8 324 16
q32 0 40 -56v-4q0 -116 -64 -116l-356 -24q-116 0 -116 64q-4 42 -4 92v136q0 82 4 248l-312 20q0 -82 4 -520q4 -35 4 -44q0 -40 -132 -40q-34 0 -44 56l-8 1120q0 83 112 156q158 64 264 64z" />
    <glyph glyph-name="ccedilla" unicode="&#xe7;" horiz-adv-x="693" 
d="M269 -314q0 22 51 22q60 9 60 56q-7 46 -82 46q-27 0 -62 -6q-44 7 -44 40q12 58 48 160q-152 57 -152 168q-4 448 -4 604q0 407 88 492q53 44 188 44h124q73 0 100 -116q16 -55 16 -252q0 -40 -120 -40q-48 0 -48 152q0 104 -12 104h-60q-108 0 -108 -152v-52
q0 -451 -12 -716q0 -48 72 -88q42 -16 124 -24q20 147 20 220q29 12 32 12q116 0 116 -84q0 -296 -140 -296q-77 4 -100 4l-28 -68q164 -27 164 -148q-12 -104 -65 -136t-83 -31q-30 0 -44 3q-39 60 -39 82z" />
    <glyph glyph-name="egrave" unicode="&#xe8;" horiz-adv-x="776" 
d="M199 1796h12q276 -162 352 -188l16 -20v-12q-2 -48 -23 -88t-42 -39q-5 0 -11 3q-58 16 -284 136q-104 40 -104 88q42 120 84 120zM238 1319q50 0 290 -4q92 0 92 -56v-52q0 -68 -44 -68h-76q-70 0 -192 -12v-28q0 -93 -4 -268l264 20q44 0 44 -96v-24q0 -52 -60 -52
q-30 -4 -256 -20l8 -508q85 0 324 16q38 0 40 -64v-16q0 -96 -68 -96l-376 -28h-8q-88 0 -88 44q-16 291 -16 624v68q12 600 52 600q24 20 74 20z" />
    <glyph glyph-name="eacute" unicode="&#xe9;" horiz-adv-x="776" 
d="M528 1763q43 0 64 -92v-24q0 -51 -156 -116q-160 -92 -192 -92h-12q-61 0 -76 84v28q0 41 120 88q175 101 240 124h12zM238 1319q50 0 290 -4q92 0 92 -56v-52q0 -68 -44 -68h-76q-70 0 -192 -12v-28q0 -93 -4 -268l264 20q44 0 44 -96v-24q0 -52 -60 -52
q-30 -4 -256 -20l8 -508q85 0 324 16q38 0 40 -64v-16q0 -96 -68 -96l-376 -28h-8q-88 0 -88 44q-16 291 -16 624v68q12 600 52 600q24 20 74 20z" />
    <glyph glyph-name="ecircumflex" unicode="&#xea;" horiz-adv-x="776" 
d="M381 1845h8q41 0 124 -104q136 -137 136 -160v-12q0 -35 -64 -76h-20q-30 0 -176 164v4q-148 -180 -160 -184t-24 -4q-84 18 -84 68v16q192 264 212 280q28 8 48 8zM238 1319q50 0 290 -4q92 0 92 -56v-52q0 -68 -44 -68h-76q-70 0 -192 -12v-28q0 -93 -4 -268l264 20
q44 0 44 -96v-24q0 -52 -60 -52q-30 -4 -256 -20l8 -508q85 0 324 16q38 0 40 -64v-16q0 -96 -68 -96l-376 -28h-8q-88 0 -88 44q-16 291 -16 624v68q12 600 52 600q24 20 74 20z" />
    <glyph glyph-name="edieresis" unicode="&#xeb;" horiz-adv-x="776" 
d="M538 1717h24q67 0 80 -44l4 -40q0 -160 -24 -160q-20 -16 -52 -16q-104 0 -104 60v128q9 72 72 72zM246 1721q41 0 56 -60q0 -34 -4 -156q0 -30 -88 -36h-16q-76 0 -76 44v144q0 57 80 64h48zM248 1319q50 0 290 -4q92 0 92 -56v-52q0 -68 -44 -68h-76q-70 0 -192 -12
v-28q0 -93 -4 -268l264 20q44 0 44 -96v-24q0 -52 -60 -52q-30 -4 -256 -20l8 -508q85 0 324 16q38 0 40 -64v-16q0 -96 -68 -96l-376 -28h-8q-88 0 -88 44q-16 291 -16 624v68q12 600 52 600q24 20 74 20z" />
    <glyph glyph-name="igrave" unicode="&#xec;" horiz-adv-x="514" 
d="M72 1740h12q276 -162 352 -188l16 -20v-12q-2 -48 -23 -88t-42 -39q-5 0 -11 3q-58 16 -284 136q-104 40 -104 88q42 120 84 120zM209 1249h52q72 0 72 -152q4 -48 4 -144v-80q0 -177 -16 -812q0 -60 -100 -72q-73 0 -84 36q0 277 20 848q-8 260 -16 336q0 40 68 40z" />
    <glyph glyph-name="iacute" unicode="&#xed;" horiz-adv-x="551" 
d="M423 1689q43 0 64 -92v-24q0 -51 -156 -116q-160 -92 -192 -92h-12q-61 0 -76 84v28q0 41 120 88q175 101 240 124h12zM239 1249h52q72 0 72 -152q4 -48 4 -144v-80q0 -177 -16 -812q0 -60 -100 -72q-73 0 -84 36q0 277 20 848q-8 260 -16 336q0 40 68 40z" />
    <glyph glyph-name="icircumflex" unicode="&#xee;" horiz-adv-x="583" 
d="M271 1723h8q41 0 124 -104q136 -137 136 -160v-12q0 -35 -64 -76h-20q-30 0 -176 164v4q-148 -180 -160 -184t-24 -4q-84 18 -84 68v16q192 264 212 280q28 8 48 8zM259 1249h52q72 0 72 -152q4 -48 4 -144v-80q0 -177 -16 -812q0 -60 -100 -72q-73 0 -84 36
q0 277 20 848q-8 260 -16 336q0 40 68 40z" />
    <glyph glyph-name="idieresis" unicode="&#xef;" horiz-adv-x="587" 
d="M437 1633h24q67 0 80 -44l4 -40q0 -160 -24 -160q-20 -16 -52 -16q-104 0 -104 60v128q9 72 72 72zM145 1637q41 0 56 -60q0 -34 -4 -156q0 -30 -88 -36h-16q-76 0 -76 44v144q0 57 80 64h48zM249 1249h52q72 0 72 -152q4 -48 4 -144v-80q0 -177 -16 -812q0 -60 -100 -72
q-73 0 -84 36q0 277 20 848q-8 260 -16 336q0 40 68 40z" />
    <glyph glyph-name="eth" unicode="&#xf0;" horiz-adv-x="803" 
d="M410 786q-168 0 -168 -336v-16q0 -276 152 -276q93 0 112 248q12 146 12 204q-12 172 -92 172q-7 4 -16 4zM262 1538q22 0 156 -140q123 54 160 60q72 0 108 -92q0 -37 -120 -92q-32 -21 -32 -24q132 -228 132 -732v-110q0 -315 -142 -388q-91 -44 -177 -44q-17 0 -33 2
h-48q-122 0 -160 304q-8 95 -8 196v40q30 324 110 396q76 55 182 55q36 0 76 -15q-25 137 -72 228q-178 -72 -204 -88h-16q-39 0 -72 92v8q44 55 192 116v4l-156 140q0 39 104 84h20z" />
    <glyph glyph-name="ntilde" unicode="&#xf1;" horiz-adv-x="962" 
d="M714 1829q9 0 20 -1q66 -11 66 -60q0 -21 -12 -48q-76 -206 -185 -215h-34q-90 0 -204 136v4h-23q-50 0 -87 -159q-10 -11 -28 -11t-56 20t-38 61q0 8 2 17q13 109 85 180q54 49 109 49h19q96 0 191 -117q12 -8 30 -8h5q43 0 87 121q9 31 53 31zM161 1352h40q71 0 96 -56
q18 -35 52 -236q64 -205 184 -424q57 -99 96 -148v760q0 104 84 104h28q68 -2 76 -24q-20 -260 -20 -412q12 -818 32 -860v-32q0 -50 -128 -60h-4q-52 0 -84 104q-133 289 -256 504q-7 0 -64 112h-4v-4l24 -680q0 -52 -96 -52t-96 52v20l-24 1028q-4 178 -4 272q13 32 68 32
z" />
    <glyph glyph-name="ograve" unicode="&#xf2;" horiz-adv-x="726" 
d="M183 1800h12q276 -162 352 -188l16 -20v-12q-2 -48 -23 -88t-42 -39q-5 0 -11 3q-58 16 -284 136q-104 40 -104 88q42 120 84 120zM344 120q115 0 136 444v180q0 227 -72 364q-24 28 -60 28q-65 0 -96 -324q-10 0 -16 -132q19 -560 108 -560zM316 -56q-163 0 -216 392
q-20 166 -20 324v92q0 437 148 540q50 28 136 40q187 0 252 -300q28 -207 28 -396q-17 -468 -40 -468q-13 -69 -84 -152q-85 -72 -204 -72z" />
    <glyph glyph-name="oacute" unicode="&#xf3;" horiz-adv-x="775" 
d="M506 1751q43 0 64 -92v-24q0 -51 -156 -116q-160 -92 -192 -92h-12q-61 0 -76 84v28q0 41 120 88q175 101 240 124h12zM354 120q115 0 136 444v180q0 227 -72 364q-24 28 -60 28q-65 0 -96 -324q-10 0 -16 -132q19 -560 108 -560zM326 -56q-163 0 -216 392
q-20 166 -20 324v92q0 437 148 540q50 28 136 40q187 0 252 -300q28 -207 28 -396q-17 -468 -40 -468q-13 -69 -84 -152q-85 -72 -204 -72z" />
    <glyph glyph-name="ocircumflex" unicode="&#xf4;" horiz-adv-x="763" 
d="M334 1804h8q41 0 124 -104q136 -137 136 -160v-12q0 -35 -64 -76h-20q-30 0 -176 164v4q-148 -180 -160 -184t-24 -4q-84 18 -84 68v16q192 264 212 280q28 8 48 8zM344 120q115 0 136 444v180q0 227 -72 364q-24 28 -60 28q-65 0 -96 -324q-10 0 -16 -132
q19 -560 108 -560zM316 -56q-163 0 -216 392q-20 166 -20 324v92q0 437 148 540q50 28 136 40q187 0 252 -300q28 -207 28 -396q-17 -468 -40 -468q-13 -69 -84 -152q-85 -72 -204 -72z" />
    <glyph glyph-name="otilde" unicode="&#xf5;" horiz-adv-x="799" 
d="M650 1772q9 0 20 -1q65 -11 65 -60q0 -20 -12 -48q-75 -206 -185 -215h-34q-89 0 -204 136v4h-22q-51 0 -87 -159q-11 -11 -29 -11t-56 20t-38 61q0 8 2 17q14 109 85 180q54 49 110 49h18q96 0 191 -117q12 -8 30 -8h5q44 0 88 121q8 31 53 31zM364 120q115 0 136 444
v180q0 227 -72 364q-24 28 -60 28q-65 0 -96 -324q-10 0 -16 -132q19 -560 108 -560zM336 -56q-163 0 -216 392q-20 166 -20 324v92q0 437 148 540q50 28 136 40q187 0 252 -300q28 -207 28 -396q-17 -468 -40 -468q-13 -69 -84 -152q-85 -72 -204 -72z" />
    <glyph glyph-name="odieresis" unicode="&#xf6;" horiz-adv-x="726" 
d="M503 1725h24q67 0 80 -44l4 -40q0 -160 -24 -160q-20 -16 -52 -16q-104 0 -104 60v128q9 72 72 72zM211 1729q41 0 56 -60q0 -34 -4 -156q0 -30 -88 -36h-16q-76 0 -76 44v144q0 57 80 64h48zM344 120q115 0 136 444v180q0 227 -72 364q-24 28 -60 28q-65 0 -96 -324
q-10 0 -16 -132q19 -560 108 -560zM316 -56q-163 0 -216 392q-20 166 -20 324v92q0 437 148 540q50 28 136 40q187 0 252 -300q28 -207 28 -396q-17 -468 -40 -468q-13 -69 -84 -152q-85 -72 -204 -72z" />
    <glyph glyph-name="divide" unicode="&#xf7;" horiz-adv-x="803" 
d="M657 762q0 -68 -148 -68q-74 0 -280 -4q-84 12 -84 84v32q0 64 108 64h88q183 0 240 8q76 0 76 -116zM508 1090q0 -42 -32 -73q-32 -32 -78 -32t-79 32q-32 31 -32 73t32 74q33 32 79 32t78 -32t32 -74zM516 482q0 -42 -32 -73q-32 -32 -78 -32t-79 32q-32 31 -32 73
t32 74q33 32 79 32t78 -32t32 -74z" />
    <glyph glyph-name="oslash" unicode="&#xf8;" horiz-adv-x="807" 
d="M367 124q90 0 128 232q16 151 28 380v4h-4q-191 -386 -236 -492q29 -124 84 -124zM258 645q0 -117 9 -117q8 23 228 412q-39 168 -64 168q-17 28 -64 28q-69 -16 -89 -158t-21 -205q0 -63 1 -82v-46zM399 1333q62 0 122 -55q45 -49 83 -134q60 139 113 159
q100 -1 100 -48q0 -10 -4 -22q-47 -110 -90 -193l-44 -88q16 -195 16 -340q-31 -450 -85 -528t-117 -108q-58 -32 -146 -32h-20q-43 0 -104 60l-35 40q-68 -111 -109 -111h-3l-21 3q-57 16 -57 64q0 6 1 12q0 40 128 228q-46 199 -46 420v92q10 441 162 544q92 36 136 36
q10 1 20 1z" />
    <glyph glyph-name="ugrave" unicode="&#xf9;" horiz-adv-x="786" 
d="M219 1789h12q276 -162 352 -188l16 -20v-12q-2 -47 -23 -87t-42 -40q-5 0 -11 3q-58 16 -284 136q-104 40 -104 88q42 120 84 120zM254 735q0 -464 44 -540q24 -32 56 -32h4q116 0 116 128q16 151 16 348v244q0 138 -8 364q0 31 88 36h48q47 0 56 -152q4 -96 4 -152v-304
q0 -529 -120 -660q-54 -44 -220 -44q-166 1 -207 119t-41 513q-4 148 -4 452q12 244 36 244q35 20 72 20q88 -8 88 -40q-28 -420 -28 -544z" />
    <glyph glyph-name="uacute" unicode="&#xfa;" horiz-adv-x="786" 
d="M557 1770q43 0 64 -92v-24q0 -51 -156 -116q-160 -92 -192 -92h-12q-61 0 -76 84v28q0 41 120 88q175 101 240 124h12zM264 735q0 -464 44 -540q24 -32 56 -32h4q116 0 116 128q16 151 16 348v244q0 138 -8 364q0 31 88 36h48q47 0 56 -152q4 -96 4 -152v-304
q0 -529 -120 -660q-54 -44 -220 -44q-166 1 -207 119t-41 513q-4 148 -4 452q12 244 36 244q35 20 72 20q88 -8 88 -40q-28 -420 -28 -544z" />
    <glyph glyph-name="ucircumflex" unicode="&#xfb;" horiz-adv-x="786" 
d="M369 1832h8q41 0 124 -104q136 -137 136 -160v-12q0 -35 -64 -76h-20q-30 0 -176 164v4q-148 -180 -160 -184t-24 -4q-84 18 -84 68v16q192 264 212 280q28 8 48 8zM254 735q0 -464 44 -540q24 -32 56 -32h4q116 0 116 128q16 151 16 348v244q0 138 -8 364q0 31 88 36h48
q47 0 56 -152q4 -96 4 -152v-304q0 -529 -120 -660q-54 -44 -220 -44q-166 1 -207 119t-41 513q-4 148 -4 452q12 244 36 244q35 20 72 20q88 -8 88 -40q-28 -420 -28 -544z" />
    <glyph glyph-name="udieresis" unicode="&#xfc;" horiz-adv-x="786" 
d="M254 735q0 -464 44 -540q24 -32 56 -32h4q116 0 116 128q16 151 16 348v244q0 138 -8 364q0 31 88 36h48q47 0 56 -152q4 -96 4 -152v-304q0 -529 -120 -660q-54 -44 -220 -44q-166 1 -207 119t-41 513q-4 148 -4 452q12 244 36 244q35 20 72 20q88 -8 88 -40
q-28 -420 -28 -544zM542 1490h-12q-91 3 -91 48v4l-3 127q3 82 85 82q18 0 41 -3q48 -1 53 -70l-2 -126q-1 -62 -71 -62zM195 1756q73 0 73 -86v-5l-4 -111v-6q0 -46 -91 -46t-92 50v118q0 85 84 85h12q11 1 18 1z" />
    <glyph glyph-name="yacute" unicode="&#xfd;" horiz-adv-x="768" 
d="M545 1849q43 0 64 -92v-24q0 -51 -156 -116q-160 -92 -192 -92h-12q-61 0 -76 84v28q0 41 120 88q175 101 240 124h12zM191 1398q31 0 48 -112q64 -221 108 -408h4q184 495 196 508h12q73 0 132 -62v-16q-76 -234 -228 -600l-24 -64q-27 -686 -38 -686q-21 -28 -36 -28
q-107 -4 -127 -2t-19 10q8 446 20 688q0 66 -164 672q-4 0 -4 24v4q0 50 116 72h4z" />
    <glyph glyph-name="thorn" unicode="&#xfe;" horiz-adv-x="776" 
d="M326 327q98 0 128 72q36 127 36 248v36q0 156 -84 204q-20 12 -40 12h-36l-40 -4q12 -177 24 -568h12zM302 1267q0 -35 4 -192h20q225 0 284 -160q48 -180 48 -304q0 -244 -112 -380q-93 -92 -196 -92h-24q4 -166 4 -248q-9 -28 -48 -28h-36q-100 0 -100 48
q-8 642 -28 1356q0 35 48 40h84q52 -5 52 -40z" />
    <glyph glyph-name="ydieresis" unicode="&#xff;" horiz-adv-x="768" 
d="M533 1782h24q67 0 80 -44l4 -40q0 -160 -24 -160q-20 -16 -52 -16q-104 0 -104 60v128q9 72 72 72zM241 1786q41 0 56 -60q0 -34 -4 -156q0 -30 -88 -36h-16q-76 0 -76 44v144q0 57 80 64h48zM191 1398q31 0 48 -112q64 -221 108 -408h4q184 495 196 508h12q73 0 132 -62
v-16q-76 -234 -228 -600l-24 -64q-27 -686 -38 -686q-21 -28 -36 -28q-107 -4 -127 -2t-19 10q8 446 20 688q0 66 -164 672q-4 0 -4 24v4q0 50 116 72h4z" />
    <glyph glyph-name="Aogonek" unicode="&#x104;" 
d="M334 728q207 0 380 20q4 113 -36 309q-60 162 -106 314q-82 -1 -79 -32q-33 -101 -112 -327q-8 -67 -55 -284h8zM220 -32q-64 0 -78 16q-4 166 -4 248v16q11 169 43 618q39 264 132 440t125 214t108 44q90 24 142 -44q7 -47 67 -122q29 -129 99 -438q88 -630 72 -924
q-6 -31 -28 -61q-5 -62 65 -104q22 -66 -2 -89q-71 -68 -144 -27q-87 39 -109 168q3 86 27 126q-15 261 -17 531q-155 0 -400 -16q-12 -177 -16 -312q8 -212 8 -256q-26 -28 -90 -28z" />
    <glyph glyph-name="aogonek" unicode="&#x105;" 
d="M322 800q-40 -171 -50 -254l344 -16l-29 203q-35 119 -80 242t-37 142q-10 -9 -60 -111t-88 -206zM280 -22q0 -40 -132 -40q-34 0 -44 56l20 712q162 480 262 550q19 35 92 64l79 -57q65 -74 129 -312q27 -88 79 -373q-18 -696 -23 -581q-2 -46 -61 -32q-11 -26 -3 -66
q30 -34 60 -82q-10 -81 -94 -54q-32 -5 -72 39q-40 63 -42 82q-6 82 39 128q8 115 31 350l-328 20q0 -82 4 -360q4 -35 4 -44z" />
    <glyph glyph-name="Cacute" unicode="&#x106;" 
d="M834 1974q-8 -6 -43 -39q-36 -34 -36 -32q-29 -37 -54 -49t-53 -50q-32 -17 -48 -39t-40 -35q-26 -12 -55 -26t-41 -6t-35 34t-23 52q6 32 28 54t36 53q62 51 82 69t49 40q29 20 30 42q50 32 70 53q19 21 47 29t42 0t33 -16t23 -26q4 -20 12 -36t5 -30q-5 -14 -13 -25
t-16 -17zM631 1577h24q180 0 236 -132q12 -47 16 -92q0 -212 -88 -212q-25 -4 -59 -4t-33 20q0 68 8 196q0 56 -108 56q-234 0 -288 -96q-56 -169 -56 -424v-312q0 -316 92 -384q161 -64 276 -64h20q56 7 56 48v68q0 28 -12 224q0 19 112 44h20q40 0 40 -132
q12 -151 12 -176q0 -168 -128 -224q-52 -16 -100 -16h-52q-217 0 -392 132q-116 130 -116 636q0 624 144 748q149 96 376 96z" />
    <glyph glyph-name="cacute" unicode="&#x107;" horiz-adv-x="750" 
d="M537 1771q43 0 64 -92v-24q0 -51 -156 -116q-160 -92 -192 -92h-12q-61 0 -76 84v28q0 41 120 88q175 101 240 124h12zM354 1317h120q73 0 100 -128q16 -55 16 -272q0 -42 -92 -48h-28q-44 0 -46 138t-14 138h-60q-108 0 -108 -160v-124q0 -228 -12 -644q0 -107 174 -120
q42 20 42 192v24q0 25 32 28q116 -11 116 -84q4 -39 4 -74q0 -192 -126 -248q-43 -15 -116 -15t-194 57q-84 60 -84 160q-4 446 -4 600q0 439 88 532q55 48 192 48z" />
    <glyph glyph-name="Eogonek" unicode="&#x118;" 
d="M655 1548q16 0 16 -60v-48q0 -48 -44 -48h-56q-137 0 -288 -8q0 -30 24 -476l280 8q32 0 32 -82t-48 -82l-260 -12q8 -411 16 -568q106 12 304 24q32 0 40 -56v-48q-11 -63 -38 -72q-22 -14 -29 -10q-45 -60 25 -111q74 6 66 -43q-17 -161 -188 -47q-78 52 -27 203
q-124 -6 -313 -8q-12 24 -12 76v544q0 397 -48 884q9 40 80 40h468z" />
    <glyph glyph-name="eogonek" unicode="&#x119;" horiz-adv-x="824" 
d="M655 1268q16 0 16 -60v-48q0 -48 -44 -48h-56q-137 0 -268 -8q0 -30 -8 -356l292 8q32 0 32 -82t-48 -82l-272 -12q8 -411 48 -408q106 12 284 24q32 0 40 -56v-48q-11 -63 -38 -72q-22 -14 -29 -10q-45 -60 25 -111q74 6 66 -43q-17 -161 -188 -47q-78 52 -27 203
q-124 -6 -293 -8q-12 24 -12 76l-32 384q0 397 -16 764q9 40 80 40h448z" />
    <glyph glyph-name="Gbreve" unicode="&#x11e;" horiz-adv-x="1060" 
d="M839 1959q41 0 52 -49v-4q0 -52 -26 -91q-58 -115 -215 -144q-30 -4 -56 -4t-47 3q-159 26 -226 178q-12 32 -12 66t32 48q11 7 23 7q34 0 78 -56q59 -78 154 -81q105 5 172 78q30 49 71 49zM646 1580h20q195 0 244 -84q16 0 16 -248v-164q0 -57 -72 -64h-56
q-40 0 -44 24q12 305 12 356q-93 12 -132 12q-188 0 -248 -68q-112 -312 -112 -696t112 -468q24 -28 244 -40q45 4 80 4l8 392q-228 26 -228 40l-4 20v48q6 76 36 76q356 -18 356 -40l8 -28v-156q0 -46 -4 -84q12 -220 12 -280v-24q0 -132 -144 -132q-63 0 -120 -8
q-241 0 -388 116q-128 129 -128 500v96q0 506 156 792q115 108 376 108z" />
    <glyph glyph-name="gbreve" unicode="&#x11f;" horiz-adv-x="812" 
d="M629 1694q38 0 48 -45v-4q0 -48 -24 -83q-53 -106 -197 -132q-29 -4 -52 -4t-43 3q-146 24 -207 163q-11 29 -11 60t29 45q10 7 21 7q31 0 79 -62t134 -65q97 5 158 72q27 45 65 45zM416 1341q183 0 248 -96q12 -37 12 -68v-232q0 -60 -80 -60h-12q-84 0 -84 60
q4 181 4 212q-72 20 -104 20q-109 0 -128 -136q-12 -90 -12 -244v-552q0 -103 108 -124q21 0 36 -4q42 4 124 20l12 264q-110 -8 -136 -8q-12 20 -12 52v24q0 104 72 104q0 7 60 8h16q143 0 152 -40v-172q0 -392 -76 -392q-37 -16 -216 -24q-205 0 -272 108q-20 0 -32 460
q0 625 100 760q40 40 144 60h76z" />
    <glyph glyph-name="dotlessi" unicode="&#x131;" horiz-adv-x="449" 
d="M312 1451v-3q-15 -441 -15 -600q14 -582 14 -803q-6 -77 -59 -80h-70q-57 5 -60 79q-7 562 -7 848l4 511q0 95 98 95l28 1q67 0 67 -48z" />
    <glyph glyph-name="Lslash" unicode="&#x141;" 
d="M345 1503v-204q9 -271 18 -443q273 105 307 97q146 -93 32 -146q-114 -48 -333 -124q-4 -364 -4 -492q4 0 4 4q145 8 284 8h28q46 0 140 -4q28 -26 28 -72v-12q0 -85 -56 -100h-40q-335 0 -524 -28q-28 21 -28 108q0 162 -4 216q-2 189 0 305q-65 -40 -145 -39
q-31 26 -27 116q-4 60 172 116q0 249 -20 470v240q10 27 89 27t79 -43z" />
    <glyph glyph-name="lslash" unicode="&#x142;" 
d="M355 1235v-204v-169q193 79 227 71q117 -45 27 -146q-114 -48 -240 -104q-4 -364 -4 -492q4 0 4 4q145 8 284 8h28q46 0 140 -4q28 -26 28 -72v-12q0 -85 -56 -100h-40q-297 -23 -528 -15q-28 21 -24 95q0 162 -4 216q-2 189 0 305q-55 -33 -135 -32q-31 26 -37 109
q-4 60 172 116q0 249 -10 202v240q10 27 89 27t79 -43z" />
    <glyph glyph-name="Nacute" unicode="&#x143;" 
d="M754 1946q-8 -6 -43 -39q-36 -34 -36 -32q-29 -37 -54 -49t-53 -50q-32 -17 -48 -39t-40 -35q-26 -12 -55 -26t-41 -6t-35 34t-23 52q6 32 28 54t36 53q62 51 82 69t49 40q29 20 30 42q50 32 70 53q19 21 47 29t42 0t33 -16t23 -26q4 -20 12 -36t5 -30q-5 -14 -13 -25
t-16 -17zM161 1532h40q61 0 86 -56q18 -35 52 -236q74 -205 194 -464q57 -99 125 -392q-16 178 -16 514t7 582q0 52 64 52h28q85 0 96 -28q-20 -255 -20 -449t24 -1027q-26 -56 -92 -56q0 -8 -48 -8h-4q-52 0 -84 104q-133 289 -256 644l-90 224l19 -543l17 -393
q0 -52 -91 -52t-91 52v20l-24 1212q-4 171 -4 268q13 32 68 32z" />
    <glyph glyph-name="nacute" unicode="&#x144;" 
d="M774 1806q-8 -6 -43 -39q-36 -34 -36 -32q-29 -37 -54 -49t-53 -50q-32 -17 -48 -39t-40 -35q-26 -12 -55 -26t-41 -6t-35 34t-23 52q6 32 28 54t36 53q62 51 82 69t49 40q29 20 30 42q50 32 70 53q19 21 47 29t42 0t33 -16t23 -26q4 -20 12 -36t5 -30q-5 -14 -13 -25
t-16 -17zM161 1352h40q61 0 86 -56q18 -35 52 -236q75 -205 163 -364t156 -312q-16 178 -16 424t7 492q0 52 64 52h28q85 0 96 -28q-20 -255 -20 -449t24 -847q-26 -56 -92 -56q0 -8 -48 -8h-4q-52 0 -84 104q-133 289 -256 504l-87 181l33 -753q0 -52 -91 -52t-91 52v20
l-24 1032q-4 171 -4 268q13 32 68 32z" />
    <glyph glyph-name="OE" unicode="&#x152;" horiz-adv-x="1256" 
d="M252 654q0 -412 136 -508q87 -32 120 -32h16q65 0 104 108q-15 326 -28 1112q-23 112 -107 112t-177 -120q-40 -117 -64 -616v-56zM880 1610h248q18 0 20 -84v-12q0 -76 -40 -76h-64q-137 0 -288 -8q16 -242 24 -504q259 8 292 8q20 -21 20 -64v-52q0 -60 -40 -60
l-268 -16q16 -488 16 -572l4 -28l304 24q40 0 40 -80v-24q0 -84 -56 -84q-382 -28 -588 -28q-267 0 -368 272q-48 178 -48 432q0 620 136 832q143 114 224 124q57 0 84 -4q200 4 348 4z" />
    <glyph glyph-name="oe" unicode="&#x153;" horiz-adv-x="1032" 
d="M237 638q0 -222 47 -415q20 -78 64 -91q70 0 86 212t16 336q-3 413 -50 448q-20 16 -52 16q-65 -20 -88 -166t-23 -282v-58zM908 1284v-72q0 -72 -76 -72h-48q-61 0 -188 4q0 -48 16 -300h120q46 0 140 4q28 -17 28 -80v-32q0 -64 -56 -64l-220 -12v-4q0 -204 -12 -516
q28 0 308 16q33 0 36 -64v-25q0 -84 -36 -87q-266 -28 -432 -28h-184q-114 0 -180 224q-52 207 -52 492v92q0 437 148 540q50 28 136 40q18 -2 53 -2t87 2q412 0 412 -56z" />
    <glyph glyph-name="Sacute" unicode="&#x15a;" horiz-adv-x="906" 
d="M483 1602q121 0 178 -129q24 -84 34 -290q0 -96 -72 -96q-102 9 -102 40q1 25 1 47q0 188 -79 218h-20q-84 0 -84 -159v-42q10 -187 226 -416q91 -71 111 -304q0 -23 5 -48v-31q47 -243 -97 -414q-80 -54 -193 -51h-4q-169 0 -224 139q-40 99 -40 318v58q0 68 44 93
q27 7 76 11q64 -11 64 -61q-8 -64 -12 -131q-4 -245 89 -225l23 -2q56 0 64 177v38q-10 249 -58 299q-267 282 -254 542v118q0 218 192 289q72 12 132 12zM774 2046q-8 -6 -43 -39q-36 -34 -36 -32q-29 -37 -54 -49t-53 -50q-32 -17 -48 -39t-40 -35q-26 -12 -55 -26t-41 -6
t-35 34t-23 52q6 32 28 54t36 53q62 51 82 69t49 40q29 20 30 42q50 32 70 53q19 21 47 29t42 0t33 -16t23 -26q4 -20 12 -36t5 -30q-5 -14 -13 -25t-16 -17z" />
    <glyph glyph-name="sacute" unicode="&#x15b;" horiz-adv-x="886" 
d="M483 1332q121 0 178 -129q24 -84 34 -260q0 -96 -72 -96q-102 9 -102 40q1 25 1 47q0 188 -79 188h-20q-84 0 -84 -129v-42q10 -187 226 -276q91 -71 91 -304q0 -23 -1 -48v-31q0 -268 -72 -331q-79 -54 -192 -54h-4q-169 0 -224 139q-40 99 -40 238v58q0 68 44 93
q27 7 76 11q64 -11 64 -61q-8 -64 -12 -131q0 -129 96 -147h16q56 0 64 97v38q0 248 -48 297q-264 132 -264 404v88q0 218 192 289q72 12 132 12zM774 1806q-8 -6 -43 -39q-36 -34 -36 -32q-29 -37 -54 -49t-53 -50q-32 -17 -48 -39t-40 -35q-26 -12 -55 -26t-41 -6t-35 34
t-23 52q6 32 28 54t36 53q62 51 82 69t49 40q29 20 30 42q50 32 70 53q19 21 47 29t42 0t33 -16t23 -26q4 -20 12 -36t5 -30q-5 -14 -13 -25t-16 -17z" />
    <glyph glyph-name="Scircumflex" unicode="&#x15c;" horiz-adv-x="901" 
d="M483 1332q121 0 178 -129q24 -84 34 -260q0 -96 -72 -96q-102 9 -102 40q1 25 1 47q0 188 -79 188h-20q-84 0 -84 -129v-42q10 -187 226 -276q91 -71 91 -304q0 -23 -1 -48v-31q0 -268 -72 -331q-79 -54 -192 -54h-4q-169 0 -224 139q-40 99 -40 238v58q0 68 44 93
q27 7 76 11q64 -11 64 -61q-8 -64 -12 -131q0 -129 96 -147h16q56 0 64 97v38q0 248 -48 297q-264 132 -264 404v88q0 218 192 289q72 12 132 12zM774 1806q-8 -6 -43 -39q-36 -34 -36 -32q-29 -37 -54 -49t-53 -50q-32 -17 -48 -39t-40 -35q-26 -12 -55 -26t-41 -6t-35 34
t-23 52q6 32 28 54t36 53q62 51 82 69t49 40q29 20 30 42q50 32 70 53q19 21 47 29t42 0t33 -16t23 -26q4 -20 12 -36t5 -30q-5 -14 -13 -25t-16 -17z" />
    <glyph glyph-name="Scedilla" unicode="&#x15e;" horiz-adv-x="877" 
d="M115 167q0 232 44 232q0 9 36 12h28q36 0 56 -28q0 -41 -8 -172q19 -96 88 -96q120 0 188 116q28 71 28 256v16q0 130 -92 164q-29 11 -180 36q-132 53 -132 100q-48 52 -48 280v108q0 372 284 372h16q199 0 276 -204q8 -50 8 -84v-76q0 -128 -108 -128q-47 0 -64 36
q4 104 4 164v12q0 112 -140 112q-76 0 -100 -108q-8 -38 -12 -252l-4 -16q0 -99 96 -136q31 -15 180 -32q89 -23 136 -96q52 -109 52 -228v-52q0 -328 -124 -424q-86 -64 -166 -88l-9 -23q164 -27 164 -148q0 -136 -136 -164q-7 -1 -22 -1t-27 17q-40 41 -40 63t37 25
q68 8 68 52q-13 48 -48 48q-93 -4 -96 -4q-44 9 -44 36q9 45 21 84q-151 11 -198 139q-12 52 -12 80z" />
    <glyph glyph-name="scedilla" unicode="&#x15f;" horiz-adv-x="767" 
d="M87 313v58q0 68 44 93q27 7 76 11q64 -11 64 -61q-8 -64 -12 -131q0 -129 96 -147h16q56 0 64 97v38q0 248 -48 297q-264 132 -264 404v88q0 218 192 289q72 12 132 12q121 0 178 -129q24 -84 34 -260q0 -96 -72 -96q-102 9 -102 40q1 25 1 47q0 188 -79 188h-20
q-84 0 -84 -129v-42q10 -187 226 -276q91 -71 91 -304q0 -23 -1 -48v-31q0 -268 -72 -331q-57 -39 -131 -50q120 -34 120 -138q0 -136 -136 -164q-9 -2 -26 -2t-35 23q-34 35 -34 57q-1 22 55 28t56 50q-13 48 -48 48q-93 -4 -96 -4q-44 9 -44 36q9 42 19 79
q-160 59 -160 360z" />
    <glyph glyph-name="Ydieresis" unicode="&#x178;" horiz-adv-x="852" 
d="M561 1918h24q67 0 80 -44l4 -40q0 -160 -24 -160q-20 -16 -52 -16q-104 0 -104 60v128q9 72 72 72zM269 1922q41 0 56 -60q0 -34 -4 -156q0 -30 -88 -36h-16q-76 0 -76 44v144q0 57 80 64h48zM684 1542q71 0 84 -100q-122 -179 -312 -568q16 -382 16 -684v-28
q0 -192 -84 -192h-32q-60 0 -60 16q0 100 8 416q-4 93 -12 428q-156 450 -240 652v20q0 49 88 56l24 4q77 -112 172 -376q28 -78 36 -116h4q123 272 236 432q24 40 72 40z" />
    <glyph glyph-name="Zacute" unicode="&#x179;" horiz-adv-x="762" 
d="M109 1552h376q136 0 136 -96q0 -77 -128 -618q-92 -288 -196 -708q211 16 344 16q24 -8 24 -44v-4q-7 -124 -36 -124q-323 -16 -413 -16t-115 68v24q0 21 96 444q156 492 220 886h-260q-92 0 -92 52v8q0 112 44 112zM654 1950q-8 -6 -44 -40t-36 -32q-29 -38 -54 -50
t-53 -49q-31 -17 -47 -39t-42 -35l-54 -27q-29 -14 -41 -5q-12 8 -35 34t-23 52q7 31 29 53t35 54q61 52 81 70t50 38q29 20 30 43q50 32 70 53q19 22 47 30q29 8 43 -1q14 -7 32 -15t22 -28t14 -34q8 -16 4 -30t-12 -26q-8 -10 -16 -16z" />
    <glyph glyph-name="zacute" unicode="&#x17a;" horiz-adv-x="785" 
d="M109 1334h376q136 0 136 -96q0 -77 -128 -400q-92 -288 -216 -708q211 16 344 16q24 -8 24 -44v-4q-7 -124 -36 -124q-323 -16 -413 -16t-115 68v24q0 21 116 444q156 492 220 668h-260q-92 0 -92 52v8q0 112 44 112zM654 1732q-8 -6 -44 -40t-36 -32q-29 -38 -54 -50
t-53 -49q-31 -17 -47 -39t-42 -35l-54 -27q-29 -14 -41 -5q-12 8 -35 34t-23 52q7 31 29 53t35 54q61 52 81 70t50 38q29 20 30 43q50 32 70 53q19 22 47 30q29 8 43 -1q14 -7 32 -15t22 -28t14 -34q8 -16 4 -30t-12 -26q-8 -10 -16 -16z" />
    <glyph glyph-name="Zdot" unicode="&#x17b;" horiz-adv-x="728" 
d="M445 1796q-1 -28 -15 -42q-14 -15 -28 -27t-46 -11q-52 2 -65 9t-39 33q-25 25 -22 46t14 40q12 18 24 32t12 17q60 30 95 24q35 -5 45 -21t18 -44t7 -56zM109 1554h376q136 0 136 -96q-5 -111 -91 -460t-253 -868q211 16 344 16q24 -8 24 -44v-4q-7 -124 -36 -124
q-323 -16 -413 -16t-115 68v24q3 62 119 485q123 512 217 847h-260q-92 0 -92 52v8q0 112 44 112z" />
    <glyph glyph-name="zdot" unicode="&#x17c;" horiz-adv-x="782" 
d="M445 1576q-1 -28 -15 -42q-14 -15 -28 -27t-46 -11q-52 2 -65 9t-39 33q-25 25 -22 46t14 40q12 18 24 32t12 17q60 30 95 24q35 -5 45 -21t18 -44t7 -56zM109 1334h376q136 0 136 -96q0 -77 -128 -400q-92 -288 -216 -708q211 16 344 16q24 -8 24 -44v-4
q-7 -124 -36 -124q-323 -16 -413 -16t-115 68v24q0 21 116 444q156 492 220 668h-260q-92 0 -92 52v8q0 112 44 112z" />
    <glyph glyph-name="circumflex" unicode="&#x2c6;" horiz-adv-x="791" 
d="M369 2057h8q41 0 124 -104q136 -137 136 -160v-12q0 -35 -64 -76h-20q-30 0 -176 164v4q-148 -180 -160 -184t-24 -4q-84 18 -84 68v16q192 264 212 280q28 8 48 8z" />
    <glyph glyph-name="caron" unicode="&#x2c7;" horiz-adv-x="779" 
d="M384 1685h-8q-41 0 -124 104q-136 137 -136 160v12q0 35 64 76h20q30 0 176 -164v-4q148 180 160 184t24 4q84 -18 84 -68v-16q-192 -264 -212 -280q-28 -8 -48 -8z" />
    <glyph glyph-name="firsttonechinese" unicode="&#x2c9;" horiz-adv-x="681" 
d="M618 1738v-28q-6 -56 -56 -56q-233 -8 -456 -8h-20q-14 0 -20 44q0 128 68 128q176 4 440 16q44 0 44 -96z" />
    <glyph glyph-name="dotaccent" unicode="&#x2d9;" horiz-adv-x="445" 
d="M321 1752q0 -42 -32 -73q-33 -32 -79 -32t-78 32q-32 31 -32 73t32 74t78 32t79 -32q32 -32 32 -74z" />
    <glyph glyph-name="ring" unicode="&#x2da;" horiz-adv-x="701" 
d="M266 1877q0 -68 56 -68h28q61 0 76 80q0 82 -64 96h-4q-88 0 -88 -68q-4 -14 -4 -40zM562 1929v-16q0 -162 -76 -204q-81 -40 -156 -40q-139 0 -196 144q-16 71 -16 96v4q0 137 136 184q76 3 88 16q220 0 220 -184z" />
    <glyph glyph-name="tilde" unicode="&#x2dc;" horiz-adv-x="907" 
d="M697 1993q9 0 20 -1q69 -11 69 -63q0 -22 -12 -51q-81 -219 -196 -228h-36q-95 0 -216 144v4h-24q-54 0 -92 -168q-10 -12 -30 -12t-51 17q-49 26 -49 69q0 8 2 18q14 115 90 190q57 52 116 52h20q101 0 202 -124q13 -8 32 -8h5q46 0 93 128q9 33 57 33z" />
    <glyph glyph-name="hungarumlaut" unicode="&#x2dd;" horiz-adv-x="795" 
d="M715 1837q0 -38 -108 -220q-34 -84 -60 -84h-12q-124 28 -124 76v24q136 246 152 259t44 13q108 -20 108 -68zM267 1933q63 0 116 -48q16 -21 16 -44q0 -42 -120 -240q-35 -44 -60 -44q-124 51 -124 92q0 16 100 184q47 100 68 100h4z" />
    <glyph glyph-name="pi" unicode="&#x3c0;" horiz-adv-x="1276" 
d="M438 1320q154 0 324 -168q37 -40 52 -40q53 0 128 104q31 88 94 88t102 -48v-40q0 -192 -252 -284h-16q0 -76 -4 -168q8 -220 8 -412v-104q0 -292 -56 -292l-64 -4q-62 7 -80 28q4 144 16 308q-8 167 -8 304v356q-62 75 -184 144q-31 16 -36 16v-4q16 -624 16 -892v-144
q0 -76 -76 -76q-24 -4 -60 -4t-48 28q-8 270 -6 590t2 426l-132 -116q-80 32 -80 104q0 94 236 268q78 32 124 32z" />
    <glyph glyph-name="endash" unicode="&#x2013;" horiz-adv-x="669" 
d="M145 628q-80 0 -81 84v2q0 88 87 91h111q90 0 254 8q63 0 65 -84q0 -94 -103 -94q-232 -7 -333 -7z" />
    <glyph glyph-name="emdash" unicode="&#x2014;" horiz-adv-x="1007" 
d="M64 710q0 92 76 95h253q138 0 454 8q61 0 64 -85q0 -93 -111 -93q-430 -7 -664 -7q-67 5 -72 47v35z" />
    <glyph glyph-name="quoteleft" unicode="&#x2018;" horiz-adv-x="440" 
d="M120 1512q0 72 94 72t95 -86v-258q0 -63 -80 -67h-41q-67 0 -68 47v292z" />
    <glyph glyph-name="quoteright" unicode="&#x2019;" horiz-adv-x="436" 
d="M115 1511q1 72 95 72t94 -86v-258q0 -63 -81 -66l-40 -1q-67 0 -68 47v292z" />
    <glyph glyph-name="quotesinglbase" unicode="&#x201a;" horiz-adv-x="436" 
d="M121 110q1 72 95 72t94 -86v-258q0 -63 -78 -67h-43q-67 0 -68 47v292z" />
    <glyph glyph-name="quotedblleft" unicode="&#x201c;" horiz-adv-x="648" 
d="M368 1488q0 72 94 72t95 -86v-258q0 -63 -66 -67h-55q-67 0 -68 47v292zM75 1492q1 72 95 72t94 -86v-258q0 -63 -76 -67h-45q-67 0 -68 47v292z" />
    <glyph glyph-name="quotedblright" unicode="&#x201d;" horiz-adv-x="677" 
d="M388 1488q0 72 94 72t95 -86v-258q0 -63 -67 -67h-54q-67 0 -68 47v292zM85 1492q1 72 95 72t94 -86v-258q0 -63 -78 -67h-43q-67 0 -68 47v292z" />
    <glyph glyph-name="quotedblbase" unicode="&#x201e;" horiz-adv-x="701" 
d="M396 180q0 72 94 72t95 -86v-258q0 -63 -64 -68l-57 1q-67 0 -68 47v292zM103 184q1 72 95 72t94 -86v-258q0 -63 -64 -67h-57q-67 0 -68 47v292z" />
    <glyph glyph-name="dagger" unicode="&#x2020;" horiz-adv-x="889" 
d="M441 1728h4q84 0 84 -68l12 -292q138 -12 232 -12q12 -14 12 -48v-36q0 -88 -72 -88q-18 0 -176 4v-4q0 -70 -32 -804q-22 -28 -124 -28q-68 0 -68 44q8 111 36 808h-76q-55 0 -192 8q-12 15 -12 28v4q8 139 28 144q19 0 252 -8v4q0 121 -12 328q19 16 104 16z" />
    <glyph glyph-name="daggerdbl" unicode="&#x2021;" horiz-adv-x="881" 
d="M427 1714q96 0 116 -26t20 -140l-4 -176q205 -4 228 -62q4 -36 4 -62q0 -69 -28 -70q-31 0 -212 12v-376h188q56 0 56 -80v-20q0 -68 -48 -80h-204v-44q0 -240 -88 -240h-72q-32 0 -52 12q12 143 12 272h-200q-68 0 -68 84t56 96h220v4q0 104 6 372q-84 2 -133 2t-74 -1
h-11q-50 0 -52 27v32q0 128 124 128l150 2v51q0 106 -6 241v3q0 39 27 39h45z" />
    <glyph glyph-name="bullet" unicode="&#x2022;" horiz-adv-x="1194" 
d="M703 747q1 -60 -41 -109t-107 -49t-107 49t-41 109q-1 60 41 109t107 49t107 -49t41 -109z" />
    <glyph glyph-name="ellipsis" unicode="&#x2026;" horiz-adv-x="1203" 
d="M947 94q0 -42 -32 -73q-33 -32 -79 -32t-78 32q-32 31 -32 73t32 74t78 32t79 -32q32 -32 32 -74zM610 78q0 -42 -32 -74t-78 -32t-79 32q-32 32 -32 74t32 73q33 32 79 32t78 -32q32 -31 32 -73zM283 94q0 -42 -32 -73q-33 -32 -79 -32t-78 32q-32 31 -32 73t32 74
t78 32t79 -32q32 -32 32 -74z" />
    <glyph glyph-name="perthousand" unicode="&#x2030;" horiz-adv-x="1733" 
d="M1351 318q0 -184 48 -184q68 0 68 268v96q0 160 -52 160q-64 -24 -64 -212v-128zM851 414q0 -221 40 -276q53 19 68 228q4 86 4 120q0 158 -40 180q-72 0 -72 -212v-40zM911 818h36q134 0 180 -204q8 -50 8 -144q0 -375 -132 -456q-48 -40 -128 -40q-151 0 -196 296
q-8 67 -8 140q0 314 124 372q33 36 116 36zM1415 822h24q132 0 172 -200q16 -140 20 -224q-16 -354 -100 -376q-46 -44 -144 -44q-157 0 -200 208q-8 53 -8 152v88q0 297 156 380q46 16 80 16zM260 1127q0 -111 44 -111h28q52 12 52 419v21q0 30 -28 30q-72 0 -96 -256v-103
zM374 1657q133 0 178 -145l12 -94q-23 -417 -64 -479q0 -44 -68 -77q0 -14 -134 -16t-190 153q-28 91 -28 167v8q0 213 84 398q77 85 210 85zM1033 1574q0 -15 -52 -116q-252 -528 -464 -1180q-16 -39 -96 -304q-36 -52 -100 -52h-8q-80 0 -92 48v8l80 196l124 384
q244 662 372 916q74 172 120 172h4q112 -23 112 -72z" />
    <glyph glyph-name="guilsinglleft" unicode="&#x2039;" horiz-adv-x="726" 
d="M582 933q0 -23 -136 -176q-136 -173 -152 -224q220 -265 224 -284v-20q-42 -100 -108 -100h-20q-35 4 -192 196q-85 143 -92 196v20q0 133 356 488h24q96 -34 96 -96z" />
    <glyph glyph-name="guilsinglright" unicode="&#x203a;" horiz-adv-x="750" 
d="M292 1032q8 0 156 -167t148 -233v-8q-4 -60 -100 -195t-248 -301l-8 -4q-124 34 -124 88q0 34 102 160t182 248q0 29 -152 208q-52 52 -52 72v16q0 51 72 116h24z" />
    <glyph glyph-name="fraction" unicode="&#x2044;" horiz-adv-x="1135" 
d="M994 1611v-8q-166 -347 -284 -656q-290 -600 -368 -800q-97 -192 -160 -192q-120 33 -120 72q9 29 84 152q271 527 448 964q126 341 172 408q61 116 124 116q104 -16 104 -56z" />
    <glyph glyph-name="fraction" unicode="&#x2215;" horiz-adv-x="1135" 
d="M994 1611v-8q-166 -347 -284 -656q-290 -600 -368 -800q-97 -192 -160 -192q-120 33 -120 72q9 29 84 152q271 527 448 964q126 341 172 408q61 116 124 116q104 -16 104 -56z" />
    <glyph glyph-name="nsuperior" unicode="&#x207f;" horiz-adv-x="734" 
d="M161 1581h36q80 -97 220 -528h4q19 528 76 528q120 -8 120 -52v-4q-36 -705 -40 -864q-9 -44 -36 -44q-40 -4 -60 -4q-70 64 -220 424q-8 0 -12 32h-4v-4q4 -50 20 -408q-11 -76 -76 -76h-4q-68 9 -68 44q-16 449 -24 924q11 32 68 32z" />
    <glyph glyph-name="Euro" unicode="&#x20ac;" horiz-adv-x="1003" 
d="M613 1569q276 0 276 -240q0 -156 -24 -156q-30 -12 -76 -12h-20q-68 0 -68 60q0 143 -40 168h-72q-115 0 -152 -76q-32 -82 -32 -284v-48l304 12q8 -15 8 -32v-68q0 -37 -48 -44q-16 -4 -280 -24v-124q183 24 268 24q44 0 44 -96v-4q0 -58 -180 -68q-29 0 -104 -8
q0 -307 140 -372h40q65 0 92 48q20 31 20 132q0 5 -4 40q16 32 44 32h72q68 0 68 -32q0 -49 4 -164q0 -97 -120 -188q-103 -48 -192 -48q-237 0 -320 312q-16 117 -20 204q-104 -8 -124 -8q-24 8 -24 44v60q0 46 28 64q56 20 108 20l-8 112q-85 -4 -100 -4q-25 0 -28 32v16
q0 112 124 112v44q0 358 100 460q120 104 296 104z" />
    <glyph glyph-name="afii61352" unicode="&#x2116;" horiz-adv-x="1464" 
d="M1166 255h12q148 0 148 -20q12 -27 12 -44v-28q0 -57 -32 -76h-112q-82 0 -248 -20h-28q-36 0 -48 68v8q0 100 104 100q80 12 192 12zM1042 979v-68q0 -300 68 -300h8q82 0 108 288q8 72 8 164q0 234 -72 268q-15 4 -32 4q-28 0 -60 -120q-28 -137 -28 -236zM1142 1563
h16q159 0 208 -248q16 -70 16 -272v-88q-20 -346 -56 -408q-38 -106 -120 -148q-69 -24 -132 -24q-192 0 -192 564q0 503 152 596q66 28 108 28zM590 571v8q12 415 12 732v224q0 32 40 32q116 0 116 -80q0 -662 -76 -1536q-13 -8 -20 -8q-83 0 -108 56q-172 637 -312 980h-4
l4 -40q8 -459 8 -559t-8 -417q-21 -24 -52 -24q-104 18 -104 104q-4 610 -4 892v124q0 144 -4 444q-4 8 -4 12q0 44 96 56q57 0 84 -88q180 -408 332 -912h4z" />
    <glyph glyph-name="trademark" unicode="&#x2122;" horiz-adv-x="1211" 
d="M557 1334q0 -132 -32 -132q-15 0 -144 4q16 -328 16 -372q0 -204 -36 -204l-28 -4h-80q-21 0 -24 12v4q0 23 12 188v8q0 138 -8 364h-136q-20 10 -20 32v60q9 64 43 64t425 4q12 -18 12 -28zM1005 1374h60q44 -6 44 -20q0 -124 -4 -404q4 -196 4 -304q0 -32 -108 -32
q-8 13 -8 24v464h-4q-78 -168 -116 -168q-32 19 -92 132v-164q0 -90 4 -256q0 -24 -76 -24q-48 0 -48 44v124q0 269 -12 448q5 120 24 120h64q35 0 108 -160q36 -64 40 -64q102 219 116 236q0 4 4 4z" />
    <glyph glyph-name="summation" unicode="&#x2211;" horiz-adv-x="897" 
d="M265 1568q197 0 484 -8q37 0 44 -104q0 -96 -40 -96h-124q-131 7 -203 7t-109 -1q234 -508 234 -531t-136 -275q-104 -259 -104 -416h234q59 0 188 8q16 -17 16 -40v-36q0 -112 -52 -112q0 -4 -24 -4h-224l-318 8q-35 4 -35 83q0 10 1 21v48q0 224 196 668q4 0 32 60
q-51 135 -216 480q-12 50 -12 100q4 112 48 112q43 28 120 28z" />
    <glyph glyph-name="minus" unicode="&#x2212;" horiz-adv-x="828" 
d="M233 628h-72q-28 16 -28 68v48q0 60 40 60q204 0 492 8q24 -25 24 -92q-8 -84 -52 -84q-246 -8 -404 -8z" />
    <glyph glyph-name="approxequal" unicode="&#x2248;" horiz-adv-x="1124" 
d="M389 669q105 0 228 -192l28 -8h4q35 0 140 100q61 68 80 68q56 0 104 -84v-20q-29 -84 -208 -220q-62 -28 -100 -28h-12q-138 0 -260 196q-74 0 -152 -152l-24 -16h-40q-88 23 -88 64q107 292 300 292zM393 1057q109 0 220 -164q8 -13 8 -20q68 0 192 152q10 20 32 20
q59 -14 108 -80q0 -122 -204 -244q-43 -24 -132 -24q-69 0 -212 164q-8 10 -8 16h-8q-68 0 -152 -188q-15 -12 -36 -12h-12q-100 33 -100 108v4q0 102 164 232q75 36 140 36z" />
    <glyph glyph-name="lessequal" unicode="&#x2264;" horiz-adv-x="759" 
d="M631 492v-36q0 -76 -52 -76q-133 0 -492 8q-16 30 -16 83t44 81q411 -8 500 -8q16 -15 16 -52zM627 725q0 -34 -60 -89q-107 0 -468 204q-20 23 -20 40v24q0 41 64 70q374 196 452 196q43 -25 52 -114l-342 -162q145 -67 313 -146q9 -10 9 -23z" />
    <glyph glyph-name="greaterequal" unicode="&#x2265;" horiz-adv-x="795" 
d="M667 471q0 -53 -16 -83q-359 -8 -492 -8q-52 0 -52 76v36q0 37 16 52q89 0 500 8q44 -28 44 -81zM659 904v-24q0 -17 -20 -40q-361 -204 -468 -204q-60 55 -60 89q0 13 9 23q168 79 313 146l-342 162q9 89 52 114q78 0 452 -196q64 -29 64 -70z" />
    </font>
</defs>
</svg>
